<?xml version="1.0" encoding="utf-8"?>
<!-- Generator: Adobe Illustrator 20.1.0, SVG Export Plug-In . SVG Version: 6.00 Build 0)  -->
<svg version="1.1" id="Layer_1" xmlns="http://www.w3.org/2000/svg" xmlns:xlink="http://www.w3.org/1999/xlink" x="0px" y="0px"
	 viewBox="0 0 393 292.6" style="enable-background:new 0 0 393 292.6;" xml:space="preserve">
<style type="text/css">
	.st0{fill:#D4F8E3;}
	.st1{fill:#8CE2AF;}
	.st2{fill:#2ECC71;}
	
		.st3{clip-path:url(#SVGID_2_);fill:#FFFFFF;stroke:#2ECC71;stroke-width:6;stroke-linecap:round;stroke-linejoin:round;stroke-miterlimit:10;}
	.st4{fill:none;stroke:#2ECC71;stroke-width:6;stroke-linecap:round;stroke-linejoin:round;stroke-miterlimit:10;}
	.st5{fill:#8CE2AF;stroke:#2ECC71;stroke-width:6;stroke-linecap:round;stroke-linejoin:round;stroke-miterlimit:10;}
	.st6{fill:#D4F8E3;stroke:#2ECC71;stroke-width:6;stroke-linecap:round;stroke-linejoin:round;stroke-miterlimit:10;}
	.st7{fill:#FFFFFF;stroke:#2ECC71;stroke-width:6;stroke-linecap:round;stroke-linejoin:round;stroke-miterlimit:10;}
</style>
<g>
	<circle class="st0" cx="200.8" cy="146.5" r="146.5"/>
	<g>
		<path class="st1" d="M68,244.2c-0.8,0-1.6-0.3-2.2-0.9c-0.7-0.7-1-1.8-0.7-2.8c3.5-14.2,9.7-27.2,18.9-39.2
			c-2.7,1.5-5.5,2.9-8.5,4c-4.1,1.5-8.2,2.3-13.2,3.2c-6.3,1.1-13,1.9-19.9,2.3c-3.3,0.2-6.5,0.3-9.8,0.3c-3.3,0-6.7-0.1-9.9-0.3
			c-2.3-0.1-4.5-0.4-6.7-0.6c-1-0.1-1.9-0.2-2.9-0.3c-0.6-0.1-1.1-0.3-1.3-0.4c-0.9-0.5-1.6-1.4-1.7-2.4c-0.1-1,0.3-2,1.2-2.7
			l0.3-0.2c0.3-0.2,0.6-0.4,0.8-0.6c5.2-3.6,10.8-6.9,17.3-10.1c10.8-5.4,22.4-9.6,34.5-12.4c0.1,0,0.2,0,0.2-0.1
			c0.3-0.1,0.7-0.2,1.2-0.3c0.4,0,0.9-0.1,1.3-0.1l0.3,0c0.4-0.1,0.9-0.2,1.3-0.3c0.1-0.1,0.2-0.1,0.3-0.2c0.3-0.1,0.7-0.4,1.2-0.5
			c4-0.9,7.8-1.7,11.3-2.3c-3.4-1-6.7-2.1-10-3.1l-0.8-0.3c-1.4-0.5-2.8-1-4.1-1.6l-0.8-0.3c-1.3-0.3-2.6-0.9-3.6-1.5l-0.2-0.1
			c-0.2-0.1-0.4-0.2-0.6-0.4l-0.3-0.2c-0.4-0.1-0.7-0.2-1.1-0.4c-0.9-0.4-1.8-0.9-2.8-1.3c-1.8-0.9-3.7-1.7-5.5-2.7
			c-3.6-1.9-7.2-3.9-10.5-5.8c-2.5-1.4-4.9-3-7.2-4.6l-0.4-0.3c-2.3-1.5-4.6-3.1-6.7-4.6c-1.9-1.4-3.8-2.8-5.5-4.2l-1.2-0.9
			c-2.5-2-5-4.1-7.5-6.2c-2.1-1.9-4.1-3.8-6-5.7c-0.8-0.8-1.6-1.6-2.4-2.4c-0.3-0.3-0.5-0.5-0.6-0.7l-0.1-0.2
			c-0.7-1-0.8-2.2-0.2-3.3c0.5-0.9,1.5-1.5,2.6-1.5c0.1,0,0.2,0,0.3,0c0.3,0,0.6,0.1,0.8,0.1c0.7,0.1,1.3,0.1,1.9,0.2l1.8,0.3
			c2.1,0.3,4.3,0.7,6.4,1.1c3.4,0.7,6.4,1.4,9.3,2.1c3.4,0.9,7.1,1.9,10.8,3.1c4.3,1.4,8.7,3,13.1,4.6c6.7,2.6,13.6,5.7,20.6,9.5
			c5,2.7,8.7,4.9,12.1,7.3c2.9,2,5.3,3.8,7.5,5.4c-4.2-8-8.1-16.9-12-27.4c-5.2-14.1-8.1-29.1-8.7-44.6c-0.1-1.4,0.8-2.6,2.2-3
			l0.2-0.1c0.3-0.1,0.6-0.1,0.8-0.1c0.8,0,1.6,0.3,2.1,0.9l0.5,0.5c0.4,0.4,0.8,0.8,1.2,1.3c3.5,3.7,6.8,7.6,10.2,12
			c3.3,4.3,6.4,8.8,9.3,13.4c4.2,6.7,7.9,13.6,10.9,20.3c1.9,4.2,3.1,8.6,3.7,13.1c0.1,0.6,0.1,1.1,0.2,1.7
			c1.8-7.1,4.4-13.9,7.7-20.3c1.9-3.6,3.7-6.7,5.5-9.7c1.3-2.1,2.8-4,4.2-5.9c0.6-0.8,1.1-1.5,1.7-2.3c0.3-0.4,0.5-0.6,0.7-0.8
			l0.3-0.3c0.6-0.6,1.4-0.9,2.2-0.9c0.3,0,0.7,0.1,1,0.2c1.1,0.4,1.9,1.4,2,2.6c0,0.3,0.1,0.7,0.1,1c0.1,0.8,0.2,1.5,0.2,2.2
			c0,0.7,0.1,1.5,0.1,2.2c0.1,2.3,0.2,4.7,0.1,7.1c-0.1,3.5-0.4,7-0.6,10.3l0,0.6c-0.2,2-0.4,4-0.8,6c-0.4,2.4-0.9,4.7-1.5,7
			c-1.3,6.1-3.6,11.8-6.8,17.6c2.5-1.3,5-2.5,7.6-3.7c5.4-2.4,11.3-4.2,17.8-5.5c1-0.2,2.1-0.4,3.1-0.6l1.4-0.2c0.2,0,0.3,0,0.5,0
			c1,0,1.9,0.5,2.4,1.3l0.1,0.2c0.8,1.1,0.7,2.7-0.2,3.7c-0.2,0.2-0.4,0.5-0.6,0.7c-0.5,0.6-1.1,1.2-1.7,1.8l-1.3,1.2
			c-1.7,1.6-3.4,3.3-5.3,4.8c-2.2,1.8-4.6,3.5-7.3,5.3c-4.3,2.8-9,5.1-14.5,7c-0.2,0.1-0.7,0.2-0.7,0.2c-1.3,0.6-2.7,1-4.3,1.3
			l-0.8,0.2c0.7,0.4,1.4,0.8,2,1c1.3,0.7,3.2,1.7,2.6,4c-0.3,1.3-1.5,2.3-2.9,2.3c0,0,0,0,0,0c-0.6,0-1-0.1-2.3-0.7
			c0,0.1-0.1,0.1-0.1,0.2c-0.6,1.1-1.7,1.8-3.1,1.8c-0.3,0-0.6,0-0.9-0.1c2.4,6.2,4.1,12.2,4.9,18c1.2,8.6,0.9,17.2-1,25.6
			c-0.3,1.2-1.3,2.1-2.5,2.3c-0.1,0-0.3,0-0.4,0c-1.1,0-2.1-0.6-2.6-1.6l-0.4-0.7c-0.3-0.5-0.6-1-0.8-1.5c-3.2-6.1-5.5-12.3-7-18.5
			c-0.7-3-1.3-5.9-1.8-8.8l-0.1-0.4c-1.5,3.5-3.2,6.6-5.1,9.5c-1.1,1.7-2.3,3.4-3.8,5.2c-2.2,2.6-4,4.7-5.7,6.6
			c-1.7,1.8-3.5,3.6-5.6,5.5c-2.4,2.2-4.7,4.1-6.9,5.8c-1.8,1.4-3.6,2.7-5.4,4l-1.1,0.8c-0.8,0.5-1.5,1-2.3,1.5l-0.8,0.5
			c-0.5,0.3-1.1,0.6-1.7,0.7C68.4,244.2,68.2,244.2,68,244.2z"/>
		<path class="st2" d="M73.1,86.7c0.6,0.6,1.2,1.2,1.7,1.8c3.6,3.8,6.9,7.7,10,11.8c3.3,4.3,6.3,8.6,9.2,13.1
			c4.1,6.5,7.7,13.1,10.7,19.9c1.8,4,2.9,8.1,3.4,12.3c0.5,4.3,0.8,8.6,1.3,12.9c0.3,2.6,0.6,5.2,1,7.8c0,0.1,0.1,0.3,0.3,0.4
			c0-0.4,0.1-0.7,0.1-1.1c0.2-3.3,0.8-6.4,1.5-9.6c0.2-1.1,0.5-2.3,0.8-3.4c0,0,0-0.1,0-0.1c0.3-1.3,0.6-2.5,1.1-3.7
			c0-0.2,0.1-0.5,0.2-1c1.8-6.9,4.3-13.5,7.5-19.8c1.7-3.2,3.5-6.4,5.4-9.5c1.8-2.8,3.8-5.4,5.7-8.1c0.2-0.3,0.4-0.5,0.8-0.8
			c0.1,1.1,0.2,2.1,0.3,3c0.1,3,0.3,6.1,0.2,9.1c-0.1,3.6-0.4,7.1-0.7,10.7c-0.2,1.9-0.4,3.9-0.7,5.7c-0.4,2.3-0.9,4.7-1.4,7
			c-1.5,6.6-4.1,12.8-7.6,18.5c-0.4,0.6-0.6,1.2-0.9,1.9c0,0,0,0-0.1-0.1c-0.5,1-1.1,1.9-1.8,2.8c-0.1,0.1-0.1,0.2-0.2,0.3
			c0,0,0,0,0,0c-0.3,0.4-0.5,0.7-0.7,1.1l-0.8,1.5c0,0,0.1,0,0.1,0c0.8-0.7,1.8-1.3,2.8-1.7c1.6-0.9,3.2-1.8,4.8-2.6
			c3.1-1.6,6.1-3.1,9.3-4.5c5.4-2.4,11.1-4.1,17.1-5.3c1.5-0.3,3-0.5,4.4-0.8c0,0,0.1,0.1,0.1,0.1c-0.7,0.8-1.4,1.6-2.2,2.4
			c-2.1,2-4.1,4-6.4,5.9c-2.2,1.8-4.6,3.5-7.1,5.1c-4.3,2.8-8.9,5-13.9,6.7c-0.3,0.1-0.5,0.2-0.8,0.3c0,0,0,0,0,0
			c-1.2,0.6-2.5,0.9-3.9,1.1c-3,0.8-5.9,1.6-8.9,2.4c0.2,0.1,0.5,0.3,0.7,0.4c1.9,0.9,3.8,1.8,5.7,2.7c0.1,0.3,0.2,0.5,0.1,0.8
			c-0.3,0.7-0.7,1.4-1.1,2.1c-0.1,0.1-0.2,0.2-0.4,0.2c-0.9,0-2.9-1.2-6-2.8c-0.2-0.1-0.4-0.2-0.7-0.3c3.8,8,6.6,16,7.8,24.4
			c1.2,8.4,0.8,16.5-0.9,24.5c-0.4-0.7-0.8-1.4-1.2-2.1c-3-5.8-5.3-11.7-6.8-17.8c-0.8-3.2-1.3-6.5-1.9-9.7
			c-0.5-2.6-0.8-5.2-1.2-7.8c-0.1-0.7-0.1-1.5-0.2-2.3c-0.1,0.2-0.2,0.4-0.3,0.6c-1.1,2.8-2.2,5.7-3.4,8.5
			c-1.5,3.5-3.2,6.9-5.3,10.1c-1.1,1.7-2.3,3.4-3.6,4.9c-1.8,2.2-3.6,4.4-5.6,6.5c-1.7,1.8-3.5,3.6-5.4,5.3c-2.2,2-4.4,3.9-6.7,5.7
			c-2.1,1.6-4.3,3.1-6.5,4.7c-1,0.7-2,1.3-3,1.9c-0.2,0.1-0.4,0.2-0.6,0.2c5.1-20.7,16.1-37.9,31.5-52.7c-0.5,0.2-1,0.4-1.5,0.7
			c-2.8,1.7-5.7,3.4-8.4,5.2c-4.8,3.1-9.6,6-15.2,8.1c-4,1.5-8.4,2.3-12.7,3.1c-6.4,1.2-12.9,1.9-19.6,2.2c-3.2,0.2-6.4,0.3-9.6,0.3
			c-3.2,0-6.5-0.1-9.7-0.3c-3.2-0.2-6.4-0.6-9.5-0.9c0,0-0.1,0-0.2-0.1c0.4-0.3,0.7-0.6,1-0.8c5.3-3.7,11-6.9,16.9-9.9
			c10.6-5.3,21.9-9.4,33.8-12.1c0.4-0.1,0.7-0.2,1.1-0.3c0.6-0.1,1.2-0.1,1.8-0.2c0.5-0.1,1-0.2,1.6-0.3c0,0,0.1,0,0.1,0
			c0.2-0.1,0.5-0.3,0.7-0.4c0.2-0.1,0.4-0.2,0.6-0.3c6.6-1.5,13.4-2.8,20.3-3.4c2.4-0.2,4.8-0.3,7.2-0.4c0.2,0,0.4,0,0.6-0.2
			c-1.3-0.3-2.5-0.6-3.8-0.9c-3.7-0.9-7.4-1.6-11.1-2.7c-4.1-1.2-8.2-2.5-12.3-3.8c-1.7-0.5-3.3-1.3-4.9-1.9
			c-1.1-0.2-2.2-0.8-3.2-1.3c-0.1,0-0.2-0.1-0.3-0.1c0,0,0,0,0,0c-0.4-0.2-0.7-0.4-1.1-0.6c-0.3,0-0.5-0.1-0.8-0.2
			c-2.7-1.3-5.5-2.6-8.2-4c-3.5-1.8-7-3.8-10.4-5.8c-2.5-1.5-5-3.1-7.5-4.8c-2.2-1.5-4.5-3-6.6-4.5c-1.8-1.3-3.6-2.6-5.3-4
			c-2.9-2.3-5.8-4.6-8.5-7.1c-2.9-2.6-5.6-5.3-8.4-8c-0.1-0.1-0.2-0.3-0.4-0.5c0.9,0.1,1.8,0.2,2.6,0.3c2.7,0.4,5.4,0.8,8.1,1.3
			c3,0.6,6.1,1.3,9.1,2.1c3.6,0.9,7.1,1.9,10.6,3c4.3,1.4,8.7,2.9,12.9,4.6c6.9,2.6,13.7,5.8,20.2,9.3c4,2.2,8,4.5,11.8,7.1
			c3.3,2.3,6.6,4.7,9.8,7.2c2.7,2.1,5.3,4.4,8,6.6c1,0.8,1.9,1.6,2.9,2.4c-9.1-13.2-15.3-27.2-20.6-41.6c-5.3-14.4-7.9-29-8.6-43.7
			C73,86.8,73,86.8,73.1,86.7 M118.1,181.7c0,0,0.5,0.2,1.6,0.7c0.4,0.2,0.8,0.4,1.1,0.7C119.3,182.4,118,181.7,118.1,181.7
			 M120.8,183.1c2,1.1,4.5,2.3,4.4,2.3c0,0-0.5-0.2-1.6-0.7c-0.8-0.4-1.6-0.8-2.4-1.2C121.1,183.4,120.9,183.3,120.8,183.1
			 M73.1,80.7c-0.6,0-1.1,0.1-1.7,0.2L71.2,81c-2.6,0.8-4.4,3.3-4.3,6c0.7,15.8,3.7,31.1,8.9,45.5c2.2,6.1,4.5,11.8,6.9,17.1
			c-2.9-1.9-6.2-3.9-10.3-6.1c-7.1-3.8-14.1-7-20.9-9.6c-4.4-1.7-8.8-3.2-13.2-4.7c-3.7-1.2-7.5-2.2-11-3.1c-2.9-0.8-6-1.5-9.5-2.1
			c-2.2-0.4-4.4-0.8-6.5-1.1c-0.6-0.1-1.2-0.2-1.8-0.3c-0.8-0.1-1.4-0.2-2.1-0.2c-0.3,0-0.5,0-0.8-0.1c-0.2,0-0.4,0-0.6,0
			c-2.1,0-4.2,1.2-5.2,3.1c-1.2,2.1-1,4.7,0.4,6.6l0.1,0.1c0.2,0.2,0.5,0.7,1,1.1c0.8,0.8,1.6,1.6,2.4,2.4c2,1.9,4,3.9,6.1,5.8
			c2.5,2.2,5.1,4.3,7.6,6.3l1.2,0.9c1.7,1.4,3.6,2.8,5.6,4.3c2.2,1.5,4.4,3.1,6.8,4.7l0.5,0.3c2.3,1.5,4.8,3.1,7.3,4.6
			c3.3,2,6.9,3.9,10.6,5.9c1.9,1,3.8,1.9,5.6,2.8c0.9,0.4,1.8,0.9,2.7,1.3c0.4,0.2,0.8,0.4,1.2,0.5c0.3,0.2,0.6,0.4,1,0.5l0,0
			c1.1,0.6,2.4,1.2,3.9,1.6c0.2,0.1,0.4,0.2,0.6,0.3c1.3,0.5,2.6,1.1,4,1.5c-0.8,0.2-1.4,0.5-1.8,0.7c-0.3,0-0.5,0.1-0.8,0.2l-0.1,0
			c-0.5,0-0.9,0.1-1.4,0.1c-0.7,0.1-1.3,0.2-1.7,0.3l-0.1,0c-12.2,2.9-24.1,7.1-35.1,12.6c-6.6,3.3-12.3,6.7-17.6,10.3
			c-0.4,0.3-0.7,0.5-1,0.7L9.5,202c-1.6,1.3-2.5,3.3-2.3,5.3c0.2,2,1.4,3.8,3.2,4.8c0.3,0.2,1.2,0.6,2.4,0.7c1,0.1,1.9,0.2,2.9,0.3
			c2.2,0.2,4.5,0.5,6.9,0.6c3.3,0.2,6.7,0.3,10.1,0.3c3.3,0,6.6-0.1,9.9-0.3c7.1-0.4,13.9-1.2,20.3-2.3c3.7-0.7,8.2-1.5,12.5-2.9
			c-6.1,9.7-10.4,20.1-13.2,31.2c-0.5,2,0.1,4.1,1.5,5.5c1.1,1.2,2.7,1.9,4.4,1.9c0.4,0,0.7,0,1.1-0.1c1-0.2,1.9-0.5,2.8-1.1
			c0.3-0.2,0.5-0.3,0.8-0.5c0.8-0.5,1.6-1,2.4-1.6l1.1-0.8c1.8-1.3,3.7-2.6,5.6-4.1c2.3-1.8,4.6-3.8,7-6c2.2-2,4.1-3.8,5.8-5.7
			c1.8-1.9,3.7-4.1,5.9-6.8c1.6-1.9,2.9-3.7,4-5.5c0.4-0.7,0.8-1.3,1.3-2c0.1,0.3,0.1,0.6,0.2,0.9c1.6,6.4,4,12.8,7.3,19.1
			c0.3,0.6,0.6,1.1,0.9,1.6c0.1,0.2,0.2,0.4,0.4,0.6c1.1,1.9,3.1,3.1,5.3,3.1c0.3,0,0.6,0,0.8-0.1c2.5-0.4,4.5-2.2,5-4.6
			c2-8.7,2.3-17.7,1-26.6c-0.7-5-2-10-3.8-15.3c0.3-0.2,0.6-0.4,0.9-0.6c0.4,0.1,0.9,0.2,1.4,0.2c2.8,0,5.2-1.9,5.8-4.6
			c0.1-0.5,0.5-2.7-0.8-4.6c0,0,0.1,0,0.1,0c5.7-2,10.7-4.4,15.1-7.3c2.8-1.9,5.3-3.7,7.6-5.5c2-1.6,3.7-3.3,5.5-5
			c0.4-0.4,0.8-0.8,1.3-1.2c0.7-0.7,1.4-1.4,1.9-2c0.2-0.2,0.4-0.4,0.6-0.7c1.9-2.1,2.1-5.2,0.5-7.5l-0.1-0.1
			c-1.1-1.6-3-2.6-4.9-2.6c-0.3,0-0.7,0-1,0.1c-0.5,0.1-0.9,0.2-1.4,0.2c-1,0.2-2.1,0.4-3.2,0.6c-6.6,1.3-12.8,3.2-18.3,5.7
			c1.4-3.4,2.5-6.8,3.2-10.3c0.5-2.4,1.1-4.8,1.5-7.2c0.4-2.1,0.6-4.2,0.8-6.3l0-0.5c0.3-3.4,0.6-6.9,0.7-10.5
			c0.1-2.5,0-4.9-0.1-7.2c0-0.7-0.1-1.5-0.1-2.2c0-0.9-0.1-1.7-0.2-2.4c0-0.3-0.1-0.6-0.1-1c-0.2-2.4-1.8-4.4-4-5.1
			c-0.6-0.2-1.3-0.3-1.9-0.3c-1.6,0-3.2,0.7-4.4,1.9c-0.1,0.1-0.1,0.1-0.2,0.2c-0.3,0.3-0.7,0.7-1,1.2c-0.5,0.8-1.1,1.5-1.7,2.3
			c-1.4,1.9-2.9,3.9-4.3,6.1c-1.9,3-3.8,6.3-5.7,9.9c-1.7,3.2-3.2,6.6-4.5,10c-0.5-1.5-1.1-2.9-1.7-4.4c-3.1-6.9-6.8-13.9-11.1-20.7
			c-2.9-4.6-6.1-9.2-9.5-13.6c-3.4-4.5-6.8-8.5-10.4-12.2c-0.4-0.4-0.8-0.9-1.3-1.3l-0.5-0.5C76.2,81.4,74.7,80.7,73.1,80.7
			L73.1,80.7z"/>
	</g>
	<g>
		<path class="st1" d="M338.4,232.8c-0.4,0-0.8-0.1-1.1-0.2c-0.3-0.1-0.6-0.3-0.9-0.4c-0.7-0.3-1.4-0.5-2-0.9c-0.7-0.3-1.3-0.6-2-1
			c-2.1-1-4.2-2-6.3-3.2c-3-1.7-6-3.6-8.8-5.4l-0.5-0.3c-1.7-1.1-3.3-2.2-5-3.5c-1.9-1.5-3.8-3.1-5.6-4.6c-4.7-4-8.7-8.6-12.3-14.2
			c0,2.8-0.1,5.6-0.3,8.4c-0.4,5.9-1.5,12-3.4,18.3c-0.3,1-0.6,2-1,3l-0.4,1.3c-0.4,1.1-1.3,1.9-2.4,2l-0.2,0c-0.1,0-0.2,0-0.4,0
			c-1.2,0-2.4-0.8-2.8-2c-0.1-0.3-0.2-0.6-0.3-0.9c-0.3-0.7-0.6-1.5-0.8-2.4l-0.5-1.7c-0.6-2.2-1.3-4.5-1.8-6.9
			c-0.6-2.8-1-5.7-1.3-9c-0.5-5.1-0.3-10.3,0.6-16.1c0-0.2,0.1-0.7,0.1-0.7c0.1-1.4,0.4-2.9,0.9-4.5l0.2-0.8
			c-3.6,2.5-3.7,2.5-4.6,2.5c0,0,0,0,0,0c-1.3,0-2.4-0.8-2.8-2.1c-0.6-1.9,0.4-2.9,1.9-4c0,0-0.1-0.1-0.1-0.1
			c-0.5-0.7-0.7-1.6-0.6-2.5c0.1-0.7,0.4-1.2,0.9-1.8c-6.6-0.7-12.6-2.1-18.2-4.1c-8.2-2.9-15.6-7.3-22.1-12.8
			c-0.9-0.8-1.3-2.1-0.9-3.3c0.4-1.2,1.5-2,2.8-2l0.7,0c0.5,0,1,0,1.5,0l0.3,0c6.9,0.1,13.5,0.9,19.6,2.4c3,0.7,5.8,1.7,8.6,2.6
			l0.4,0.1c-2.3-3-4.3-5.9-6-8.9c-1-1.7-1.9-3.6-2.8-5.8c-1.3-3.1-2.3-5.7-3.2-8.2c-0.8-2.3-1.5-4.8-2.2-7.5c-0.8-3.1-1.4-6-1.9-8.8
			c-0.4-2.2-0.7-4.5-1-6.7L250,115c-0.1-0.9-0.2-1.8-0.2-2.7l-0.1-1c0-0.6,0-1.2,0.2-1.8c0.3-1,1.1-1.7,2.1-2
			c0.3-0.1,0.5-0.1,0.8-0.1c0.7,0,1.4,0.3,2,0.8c10.9,9.7,19.5,21.3,25.8,35c-0.1-3.1,0-6.2,0.4-9.4c0.6-4.7,2.1-9.4,3.3-13.2
			c1.9-6.1,4.4-12.3,7.3-18.7c2.8-6.1,5.9-11.9,9.2-17.4c1.2-1.9,2.5-3.8,3.7-5.7c0.5-0.8,1.1-1.6,1.6-2.4c0.3-0.5,0.8-0.8,0.9-0.9
			c0.5-0.4,1.1-0.6,1.8-0.6c0.4,0,0.8,0.1,1.1,0.2c1,0.4,1.7,1.2,1.8,2.3l0.1,0.4c0.1,0.4,0.1,0.7,0.2,1.1c0.8,6.3,1,12.8,0.9,20
			c-0.3,12.1-2,24.3-5.2,36.3c0,0.1,0,0.2-0.1,0.2c-0.1,0.3-0.2,0.7-0.3,1.2c-0.2,0.4-0.3,0.8-0.5,1.2l-0.1,0.3
			c-0.1,0.4-0.2,0.9-0.4,1.3c0,0.1,0,0.3,0,0.4c0,0.3,0,0.8-0.1,1.3c-1.1,4-2.1,7.6-3.3,11c2.4-2.5,4.9-4.9,7.4-7.3l0.6-0.6
			c1.1-1,2.2-2,3.3-2.9l0.7-0.6c0.9-1,2-1.9,3-2.5l0.1-0.1c0.2-0.2,0.4-0.3,0.6-0.4l0.3-0.2c0.2-0.3,0.5-0.5,0.8-0.8
			c0.8-0.6,1.6-1.2,2.5-1.8c1.6-1.2,3.3-2.4,5-3.6c3.4-2.3,6.8-4.5,10-6.5c2.4-1.5,4.9-2.9,7.4-4.2l0.5-0.3c2.5-1.3,4.9-2.6,7.2-3.8
			c2.1-1.1,4.2-2,6.2-2.9l1.4-0.6c2.9-1.3,5.9-2.6,9-3.7c2.6-1,5.3-1.8,7.9-2.7c1.1-0.3,2.2-0.7,3.2-1c0.4-0.1,0.7-0.2,0.9-0.2
			l0.2,0c0.2,0,0.3,0,0.5,0c1,0,2,0.5,2.5,1.4c0.6,1,0.6,2.3,0,3.3c-0.2,0.2-0.3,0.5-0.5,0.7c-0.4,0.6-0.7,1.1-1.1,1.6l-1.1,1.4
			c-1.3,1.7-2.6,3.5-3.9,5.2c-2.2,2.7-4.2,5-6.2,7.2c-2.4,2.6-5,5.4-7.8,8.1c-3.3,3.2-6.7,6.4-10.2,9.4c-5.5,4.8-11.3,9.3-18,13.8
			c-4.7,3.2-8.4,5.4-12.1,7.3c-3.1,1.6-5.9,2.9-8.3,4.1c0.1,0,0.2,0,0.2,0c9,0,18.5,0.7,29.6,2.2c14.9,2,29.5,6.4,43.5,13.1
			c1.2,0.6,1.9,1.9,1.7,3.3l0,0.2c-0.2,1.1-1,2-2.1,2.3l-0.7,0.2c-0.6,0.2-1.1,0.3-1.7,0.5c-4.9,1.3-9.9,2.5-15.4,3.4
			c-5.4,0.9-10.8,1.6-16.2,2c-4.3,0.3-8.6,0.5-12.7,0.5c-3.5,0-7-0.1-10.4-0.4c-4.6-0.3-9.1-1.3-13.3-2.9c-0.5-0.2-1.1-0.4-1.6-0.6
			c5.4,4.9,10.2,10.4,14.3,16.3c2.3,3.3,4.2,6.4,6,9.4c1.2,2.1,2.3,4.3,3.3,6.4c0.4,0.9,0.8,1.7,1.2,2.6c0.2,0.4,0.3,0.7,0.4,1.1
			l0.1,0.3c0.4,1.1,0.1,2.4-0.8,3.2C339.9,232.6,339.2,232.8,338.4,232.8z"/>
		<path class="st2" d="M308.8,78c0.1,0.5,0.2,0.9,0.2,1.3c0.8,6.4,1,13,0.9,19.6c-0.3,11.8-1.9,23.7-5.1,35.6
			c-0.1,0.4-0.1,0.7-0.3,1.1c-0.2,0.6-0.5,1.1-0.7,1.7c-0.1,0.5-0.3,1-0.5,1.6c0,0,0,0.1,0,0.1c0,0.3,0,0.5,0,0.8c0,0.2,0,0.4,0,0.6
			c-1.8,6.6-3.8,13.1-6.4,19.5c-0.9,2.2-2,4.4-3,6.5c-0.1,0.2-0.1,0.3-0.1,0.6c0.9-1,1.7-2,2.6-2.9c2.5-2.9,4.9-5.8,7.5-8.5
			c3-3.1,6.1-6.1,9.1-9.1c1.3-1.2,2.7-2.3,4-3.5c0.7-0.8,1.7-1.6,2.7-2.2c0.1-0.1,0.2-0.1,0.2-0.2c0,0,0,0,0,0
			c0.4-0.2,0.7-0.5,1.1-0.7c0.1-0.2,0.3-0.4,0.5-0.6c2.4-1.8,4.8-3.6,7.3-5.3c3.3-2.2,6.6-4.4,9.9-6.5c2.5-1.6,5.1-3,7.7-4.4
			c2.4-1.3,4.7-2.5,7.1-3.7c2-1,4-2,6.1-2.8c3.4-1.5,6.8-3,10.2-4.2c3.6-1.4,7.4-2.5,11-3.7c0.2-0.1,0.3-0.1,0.6-0.1
			c-0.5,0.8-1,1.5-1.5,2.2c-1.6,2.2-3.2,4.4-5,6.5c-2,2.4-4,4.8-6.1,7.1c-2.5,2.7-5,5.4-7.6,8c-3.3,3.2-6.6,6.3-10.1,9.3
			c-5.6,4.9-11.5,9.4-17.7,13.5c-3.8,2.6-7.7,5-11.8,7.1c-3.6,1.8-7.2,3.6-10.9,5.3c-3.1,1.4-6.4,2.7-9.5,4c-1.2,0.5-2.3,1-3.5,1.5
			c5.8-0.7,11.5-1,17.2-1c9.9,0,19.6,0.9,29.2,2.2c15.2,2.1,29.3,6.5,42.6,12.8c0,0.1,0,0.1,0,0.2c-0.8,0.2-1.6,0.5-2.4,0.7
			c-5,1.4-10,2.5-15.1,3.3c-5.3,0.9-10.6,1.6-15.9,2c-4.2,0.3-8.3,0.5-12.5,0.5c-3.4,0-6.8-0.1-10.1-0.3c-4.4-0.3-8.6-1.2-12.5-2.7
			c-4.1-1.5-8-3.3-12-4.9c-2.4-1-4.9-1.9-7.3-2.8c-0.1,0-0.1,0-0.2,0c-0.1,0-0.2,0-0.3,0.1c0.3,0.2,0.6,0.4,0.9,0.6
			c2.8,1.7,5.3,3.7,7.8,5.8c0.9,0.8,1.8,1.5,2.7,2.3c0,0,0,0,0.1,0c1,0.8,2,1.7,2.8,2.7c0.2,0.1,0.4,0.3,0.8,0.6
			c5.3,4.8,9.9,10.1,14,15.9c2.1,3,4,6,5.8,9.2c1.6,2.9,3,5.9,4.4,8.8c0.1,0.3,0.2,0.6,0.4,1.1c-1-0.4-2-0.8-2.8-1.2
			c-2.7-1.3-5.5-2.6-8.1-4c-3.1-1.8-6.1-3.7-9.1-5.6c-1.6-1-3.2-2.2-4.7-3.3c-1.9-1.5-3.7-3-5.5-4.5c-5.2-4.4-9.4-9.6-12.8-15.4
			c-0.4-0.6-0.8-1.1-1.2-1.7c0,0,0.1,0,0.1,0c-0.6-0.9-1.2-1.8-1.6-2.9c-0.1-0.1-0.1-0.2-0.2-0.3c0,0,0,0,0,0
			c-0.2-0.4-0.4-0.8-0.6-1.1l-1-1.4c0,0,0,0-0.1,0.1c0.2,1.1,0.3,2.2,0.2,3.3c0,1.8,0.1,3.6,0.1,5.5c-0.1,3.4-0.1,6.9-0.3,10.3
			c-0.4,5.9-1.5,11.8-3.3,17.6c-0.4,1.4-0.9,2.9-1.4,4.3c-0.1,0-0.1,0-0.2,0c-0.4-1-0.8-2-1.1-3c-0.8-2.8-1.6-5.5-2.2-8.4
			c-0.6-2.8-1-5.7-1.2-8.6c-0.5-5.1-0.2-10.2,0.5-15.4c0-0.3,0.1-0.6,0.1-0.8c0,0,0,0,0,0c0.1-1.4,0.4-2.7,0.8-4c0.7-3,1.3-6,2-9
			c-0.2,0.1-0.5,0.3-0.7,0.4c-1.7,1.3-3.4,2.5-5.1,3.8c0,0,0,0,0,0c-0.3,0-0.5-0.1-0.7-0.3c-0.5-0.6-0.9-1.3-1.4-1.9
			c-0.5-0.7,1.7-2,5.3-4.5c0.2-0.1,0.4-0.3,0.6-0.5c-8.8-0.4-17.3-1.7-25.2-4.5c-7.9-2.9-15-7-21.2-12.3c0.7,0,1.5,0,2.2,0
			c0.1,0,0.2,0,0.3,0c6.5,0.1,12.8,0.8,18.9,2.3c3.2,0.8,6.4,1.8,9.5,2.8c2.5,0.8,5,1.7,7.5,2.6c0.7,0.3,1.3,0.6,2.1,0.8
			c-0.1-0.2-0.2-0.4-0.4-0.5c-2-2.3-4-4.6-5.9-7c-2.4-2.9-4.6-6.1-6.5-9.4c-1-1.8-1.9-3.6-2.7-5.5c-1.1-2.6-2.2-5.3-3.1-8
			c-0.8-2.4-1.5-4.8-2.1-7.3c-0.7-2.8-1.4-5.7-1.9-8.6c-0.5-2.6-0.8-5.3-1.1-7.9c-0.2-1.2-0.2-2.4-0.3-3.6c0-0.2,0-0.4,0.1-0.7
			c15.9,14.1,26,31.9,31.9,52.5c0-0.6,0.1-1.1,0.1-1.6c-0.2-3.3-0.4-6.6-0.6-9.9c-0.5-5.7-0.8-11.3-0.1-17.2
			c0.6-4.3,1.9-8.5,3.2-12.7c2-6.2,4.4-12.3,7.2-18.3c2.7-5.8,5.7-11.5,9-17.1c1.6-2.7,3.5-5.4,5.2-8
			C308.6,78.1,308.7,78.1,308.8,78 M282,182.5c0,0-0.4,0.3-1.4,1.1c-0.3,0.2-0.7,0.5-1.1,0.6C280.8,183.3,281.9,182.5,282,182.5
			 M279.5,184.2c-1.8,1.3-4,2.8-4.1,2.8c0,0,0.4-0.3,1.4-1.1c0.7-0.5,1.4-1.1,2.1-1.6C279.1,184.3,279.3,184.3,279.5,184.2
			 M308.8,72c-1.2,0-2.4,0.4-3.4,1.1c-0.3,0.2-1.1,0.7-1.8,1.8c-0.5,0.8-1.1,1.6-1.6,2.4c-1.2,1.9-2.5,3.8-3.7,5.8
			c-3.4,5.6-6.5,11.5-9.4,17.7c-3,6.5-5.5,12.9-7.4,19c-1.1,3.6-2.5,7.9-3.2,12.4c-5.8-9.9-12.9-18.6-21.5-26.2
			c-1.1-1-2.5-1.5-4-1.5c-0.5,0-1.1,0.1-1.6,0.2c-2,0.5-3.5,2-4.1,4c-0.3,0.9-0.4,1.9-0.3,2.9c0,0.3,0,0.6,0.1,1
			c0.1,0.9,0.1,1.9,0.3,2.9l0.2,1.4c0.3,2.2,0.6,4.5,1,6.8c0.5,2.9,1.2,5.8,2,9c0.7,2.8,1.5,5.4,2.3,7.8c0.9,2.5,1.9,5.1,3.3,8.3
			c1,2.3,1.9,4.3,3,6.1c0.4,0.7,0.8,1.4,1.2,2.1c-0.3-0.1-0.6-0.1-0.9-0.2c-6.4-1.6-13.2-2.4-20.3-2.5l-0.3,0c-0.5,0-1,0-1.6,0
			c-0.2,0-0.5,0-0.7,0c-2.5,0-4.7,1.6-5.5,4c-0.8,2.3-0.1,5,1.8,6.6c6.8,5.8,14.5,10.3,23.1,13.4c4.7,1.7,9.8,3,15.3,3.8
			c0,0.4,0,0.8,0.1,1.1c-2.1,2.4-1.5,5-1.2,5.8c0.8,2.5,3.1,4.1,5.7,4.1c0.2,0,0.3,0,0.5,0c0,0,0,0.1,0,0.1
			c-0.9,6-1.1,11.5-0.6,16.8c0.3,3.4,0.7,6.4,1.3,9.3c0.5,2.5,1.2,4.9,1.8,7.2c0.2,0.6,0.3,1.1,0.5,1.7c0.3,1,0.6,1.9,0.9,2.6
			c0.1,0.3,0.2,0.6,0.3,0.8c0.9,2.4,3.1,4,5.6,4c0.3,0,0.5,0,0.8-0.1l0.2,0c2.3-0.3,4.2-1.9,4.9-4.1c0.1-0.4,0.3-0.9,0.4-1.3
			c0.3-1,0.7-2,1-3.1c2-6.4,3.2-12.8,3.6-18.8c2.4,2.8,4.9,5.4,7.6,7.7c1.8,1.6,3.7,3.2,5.7,4.7c1.7,1.3,3.4,2.6,5.2,3.7l0.4,0.3
			c2.9,1.8,5.9,3.7,9,5.5c2.2,1.2,4.4,2.3,6.5,3.3c0.7,0.3,1.3,0.6,2,0.9c0.8,0.4,1.5,0.7,2.2,1c0.3,0.1,0.6,0.2,0.9,0.4
			c0.7,0.3,1.5,0.5,2.3,0.5c1.5,0,3-0.6,4.1-1.6c1.7-1.6,2.3-4.1,1.6-6.3c0-0.1-0.1-0.2-0.1-0.3c-0.1-0.4-0.3-0.9-0.6-1.5
			c-0.4-0.8-0.8-1.7-1.2-2.5c-1-2.2-2.1-4.4-3.4-6.6c-1.8-3.1-3.8-6.3-6.1-9.6c-2.1-3-4.3-5.9-6.8-8.7c1.5,0.2,3.1,0.4,4.6,0.5
			c3.4,0.2,7,0.4,10.6,0.4c4.2,0,8.6-0.2,12.9-0.5c5.5-0.4,11-1.1,16.4-2c5.6-1,10.7-2.1,15.7-3.5c0.6-0.2,1.2-0.3,1.8-0.5l0.7-0.2
			c2.1-0.6,3.7-2.4,4.2-4.6l0-0.2c0.5-2.7-0.8-5.4-3.3-6.6c-14.3-6.8-29.2-11.3-44.4-13.4c-6.6-0.9-12.6-1.5-18.3-1.9
			c3.1-1.7,6.3-3.7,10.2-6.3c6.6-4.5,12.8-9.2,18.3-14c3.5-3.1,7-6.3,10.3-9.5c2.8-2.7,5.5-5.6,7.9-8.2c2-2.2,4.1-4.6,6.3-7.4
			c1.4-1.8,2.7-3.5,4-5.3c0.4-0.5,0.7-1,1.1-1.4c0.5-0.6,0.8-1.2,1.2-1.7c0.1-0.2,0.3-0.4,0.4-0.7c1.3-2,1.4-4.6,0.1-6.6
			c-1.1-1.7-3-2.8-5-2.8c-0.3,0-0.6,0-1,0.1l-0.1,0c-0.3,0-0.8,0.1-1.4,0.3c-1.1,0.4-2.1,0.7-3.2,1c-2.6,0.8-5.3,1.7-8,2.7
			c-3.1,1.2-6.2,2.5-9.1,3.8l-1.4,0.6c-2.1,0.9-4.2,1.9-6.4,3c-2.4,1.2-4.8,2.5-7.3,3.8l-0.5,0.3c-2.5,1.3-5,2.7-7.5,4.3
			c-3.3,2-6.7,4.3-10.2,6.6c-1.7,1.2-3.4,2.4-5.1,3.6c-0.8,0.6-1.6,1.2-2.4,1.8c-0.4,0.3-0.7,0.5-1,0.9c-0.3,0.2-0.6,0.4-0.9,0.6
			l0,0c-1,0.7-2.2,1.6-3.2,2.7c-0.2,0.1-0.3,0.3-0.5,0.4c-1.1,0.9-2.1,1.8-3.2,2.8c0.2-0.8,0.2-1.5,0.2-1.9c0.1-0.3,0.2-0.5,0.2-0.8
			l0-0.1c0.2-0.4,0.4-0.9,0.5-1.3c0.3-0.7,0.4-1.3,0.5-1.6l0-0.1c3.2-12.2,5-24.6,5.3-36.9c0.2-7.3-0.1-14-0.9-20.4
			c-0.1-0.5-0.1-0.9-0.2-1.2l-0.1-0.4c-0.3-2-1.7-3.8-3.6-4.6C310.4,72.1,309.6,72,308.8,72L308.8,72z"/>
	</g>
	<g>
		<defs>
			<circle id="SVGID_1_" cx="200.8" cy="146.5" r="146.5"/>
		</defs>
		<clipPath id="SVGID_2_">
			<use xlink:href="#SVGID_1_"  style="overflow:visible;"/>
		</clipPath>
		<path class="st3" d="M133.4,25.7L133.4,25.7c-18.5,0-33.7,15.2-33.7,33.7v270.2h191.6V59.4c0-18.5,15.2-33.7,33.7-33.7h0H133.4z"
			/>
	</g>
	<path class="st4" d="M133.4,363.4"/>
	<g>
		<g>
			<polygon class="st5" points="216.6,257.7 206.5,237.2 185.7,246.6 205.3,191.8 236.3,202.9 			"/>
			<polygon class="st5" points="244.6,257.7 254.7,237.2 275.6,246.6 255.9,191.8 224.9,202.9 			"/>
		</g>
		<ellipse class="st6" cx="230.6" cy="172.6" rx="35.2" ry="35.1"/>
		<ellipse class="st7" cx="230.6" cy="172.6" rx="17.3" ry="17.2"/>
	</g>
	<line class="st4" x1="131.8" y1="76.4" x2="256.3" y2="76.4"/>
	<line class="st4" x1="131.8" y1="107.1" x2="256.3" y2="107.1"/>
	<line class="st4" x1="131.8" y1="137.8" x2="178.2" y2="137.8"/>
	<line class="st4" x1="131.8" y1="168.6" x2="178.2" y2="168.6"/>
	<line class="st4" x1="131.8" y1="199.3" x2="178.2" y2="199.3"/>
	<line class="st4" x1="131.8" y1="230" x2="178.2" y2="230"/>
	<line class="st4" x1="131.8" y1="260.7" x2="178.2" y2="260.7"/>
	<path class="st5" d="M325,25.7c-18.5,0-33.7,15.2-33.7,33.7h67.4C358.7,40.9,343.5,25.7,325,25.7z"/>
	<path class="st7" d="M99.7,59.4c0-18.5,15.2-33.7,33.7-33.7h0H325h0c-18.5,0-33.7,15.2-33.7,33.7"/>
</g>
</svg>
