<?xml version="1.0" encoding="utf-8"?>
<!-- Generator: Adobe Illustrator 20.1.0, SVG Export Plug-In . SVG Version: 6.00 Build 0)  -->
<svg version="1.1" id="Layer_1" xmlns="http://www.w3.org/2000/svg" xmlns:xlink="http://www.w3.org/1999/xlink" x="0px" y="0px"
	 viewBox="0 0 293 313.7" style="enable-background:new 0 0 293 313.7;" xml:space="preserve">
<style type="text/css">
	.st0{fill:#D4F8E3;}
	.st1{fill:none;}
	.st2{fill:#8CE2AF;stroke:#2ECC71;stroke-width:6;stroke-linecap:round;stroke-linejoin:round;stroke-miterlimit:10;}
	.st3{fill:#FFFFFF;stroke:#2ECC71;stroke-width:6;stroke-linecap:round;stroke-linejoin:round;stroke-miterlimit:10;}
	.st4{fill:#2ECC71;}
	.st5{fill:#D4F8E3;stroke:#2ECC71;stroke-width:6;stroke-linecap:round;stroke-linejoin:round;stroke-miterlimit:10;}
	.st6{fill:none;stroke:#2ECC71;stroke-width:6;stroke-linecap:round;stroke-linejoin:round;stroke-miterlimit:10;}
</style>
<circle class="st0" cx="146.5" cy="167.2" r="146.5"/>
<circle class="st1" cx="146.5" cy="167.2" r="146.5"/>
<g>
	<rect x="71.7" y="43.1" class="st2" width="189.9" height="246.7"/>
	<rect x="91" y="56.2" class="st3" width="151.3" height="213.1"/>
	<g>
		<path class="st0" d="M162.5,143.5c-1.7,0-3-1.3-3-3v-2.5h-2.5c-1.7,0-3-1.3-3-3v-8.3c0-1.7,1.3-3,3-3h2.5v-2.5c0-1.7,1.3-3,3-3
			h8.3c1.7,0,3,1.3,3,3v2.5h2.5c1.7,0,3,1.3,3,3v8.3c0,1.7-1.3,3-3,3h-2.5v2.5c0,1.7-1.3,3-3,3H162.5z"/>
		<path class="st4" d="M170.8,121.1v5.5h5.5v8.3h-5.5v5.5h-8.3v-5.5h-5.5v-8.3h5.5v-5.5H170.8 M170.8,115.1h-8.3
			c-3.2,0-5.8,2.4-6,5.5c-3.1,0.2-5.5,2.8-5.5,6v8.3c0,3.2,2.4,5.8,5.5,6c0.2,3.1,2.8,5.5,6,5.5h8.3c3.2,0,5.8-2.4,6-5.5
			c3.1-0.2,5.5-2.8,5.5-6v-8.3c0-3.2-2.4-5.8-5.5-6C176.6,117.5,174,115.1,170.8,115.1L170.8,115.1z"/>
	</g>
	<g>
		<path class="st4" d="M61.3,228.4v8.3h8.3v12.5h-8.3v8.3H48.7v-8.3h-8.3v-12.5h8.3v-8.3H61.3 M61.3,222.4H48.7c-3.3,0-6,2.7-6,6
			v2.3h-2.3c-3.3,0-6,2.7-6,6v12.5c0,3.3,2.7,6,6,6h2.3v2.3c0,3.3,2.7,6,6,6h12.5c3.3,0,6-2.7,6-6v-2.3h2.3c3.3,0,6-2.7,6-6v-12.5
			c0-3.3-2.7-6-6-6h-2.3v-2.3C67.3,225,64.6,222.4,61.3,222.4L61.3,222.4z"/>
	</g>
	<path class="st5" d="M195.2,31.6c0-15.8-12.8-28.6-28.6-28.6S138,15.8,138,31.6h-32.1v33.3h121.4V31.6H195.2z M166.6,42
		c-5.7,0-10.4-4.7-10.4-10.4s4.7-10.4,10.4-10.4c5.7,0,10.4,4.7,10.4,10.4S172.4,42,166.6,42z"/>
	<g>
		<g>
			<path class="st3" d="M121.4,180.2H29.2c-0.5,0-1-0.5-1-1v-17.6c0-0.6,0.5-1,1-1h92.2c0.6,0,1,0.4,1,1v17.6
				C122.4,179.7,122,180.2,121.4,180.2z"/>
			<g>
				<line class="st6" x1="45.3" y1="160.6" x2="45.3" y2="180.2"/>
				<line class="st6" x1="65.3" y1="160.6" x2="65.3" y2="180.2"/>
				<line class="st6" x1="85.3" y1="160.6" x2="85.3" y2="180.2"/>
				<line class="st6" x1="105.3" y1="160.6" x2="105.3" y2="180.2"/>
			</g>
		</g>
		<g>
			<polygon class="st5" points="129.3,289.7 129.3,212 99.1,180.2 51.5,180.2 21.3,212 21.3,289.7 			"/>
		</g>
		<polyline class="st3" points="98,216.9 98,274.8 21.3,274.8 21.3,216.9 86.3,216.9 		"/>
		<g>
			<path class="st0" d="M53.7,262.6c-1.7,0-3-1.3-3-3v-4.8h-4.8c-1.7,0-3-1.3-3-3V240c0-1.7,1.3-3,3-3h4.8v-4.8c0-1.7,1.3-3,3-3
				h11.8c1.7,0,3,1.3,3,3v4.8h4.8c1.7,0,3,1.3,3,3v11.8c0,1.7-1.3,3-3,3h-4.8v4.8c0,1.7-1.3,3-3,3H53.7z"/>
			<g>
				<path class="st4" d="M65.5,232.2v7.8h7.8v11.8h-7.8v7.8H53.7v-7.8h-7.8V240h7.8v-7.8H65.5 M65.5,226.2H53.7c-3.3,0-6,2.7-6,6
					v1.8h-1.8c-3.3,0-6,2.7-6,6v11.8c0,3.3,2.7,6,6,6h1.8v1.8c0,3.3,2.7,6,6,6h11.8c3.3,0,6-2.7,6-6v-1.8h1.8c3.3,0,6-2.7,6-6V240
					c0-3.3-2.7-6-6-6h-1.8v-1.8C71.5,228.9,68.8,226.2,65.5,226.2L65.5,226.2z"/>
			</g>
		</g>
	</g>
	<g>
		<g>
			<path class="st4" d="M166.6,108c29.4,0,53.3,10.2,53.3,22.7c0,12.6-23.9,22.7-53.3,22.7s-53.3-10.2-53.3-22.7
				C113.4,118.2,137.2,108,166.6,108 M166.6,102c-15,0-29.2,2.5-40,7.1c-12.4,5.3-19.2,13-19.2,21.6s6.8,16.3,19.2,21.6
				c10.8,4.6,25,7.1,40,7.1s29.2-2.5,40-7.1c12.4-5.3,19.2-13,19.2-21.6s-6.8-16.3-19.2-21.6C195.9,104.6,181.7,102,166.6,102
				L166.6,102z"/>
		</g>
		<g>
			<path class="st4" d="M145.5,83.2c11.5,0,28.3,14.5,40.8,36.2c14.7,25.5,17.8,51.2,6.9,57.5c-1.6,0.9-3.5,1.4-5.5,1.4
				c-11.5,0-28.3-14.5-40.8-36.2c-14.7-25.5-17.8-51.2-6.9-57.5C141.6,83.7,143.5,83.2,145.5,83.2 M145.5,77.2
				C145.5,77.2,145.5,77.2,145.5,77.2c-3.1,0-6,0.7-8.5,2.2c-7.5,4.3-10.7,14.1-9.1,27.5c1.4,11.6,6.3,25.2,13.8,38.2
				c13.5,23.4,32,39.2,46,39.2c3.1,0,6-0.7,8.5-2.2c7.5-4.3,10.7-14.1,9.1-27.5c-1.4-11.6-6.3-25.2-13.8-38.2
				C178,93,159.5,77.2,145.5,77.2L145.5,77.2z"/>
		</g>
		<g>
			<path class="st4" d="M187.8,83.2c2,0,3.9,0.5,5.5,1.4c10.9,6.3,7.8,32-6.9,57.5c-12.5,21.7-29.4,36.2-40.8,36.2
				c-2,0-3.9-0.5-5.5-1.4c-10.9-6.3-7.8-32,6.9-57.5C159.4,97.7,176.3,83.2,187.8,83.2 M187.8,77.2L187.8,77.2
				c-14,0-32.5,15.7-46,39.2c-7.5,13-12.4,26.6-13.8,38.2c-1.6,13.4,1.6,23.2,9.1,27.5c2.5,1.5,5.4,2.2,8.5,2.2
				c14,0,32.5-15.7,46-39.2c7.5-13,12.4-26.6,13.8-38.2c1.6-13.4-1.6-23.2-9.1-27.5C193.7,78,190.9,77.2,187.8,77.2L187.8,77.2z"/>
		</g>
	</g>
	<line class="st6" x1="224.3" y1="197.7" x2="114.9" y2="197.7"/>
	<line class="st6" x1="224.3" y1="218.5" x2="129.3" y2="218.5"/>
	<line class="st6" x1="224.3" y1="239.4" x2="129.3" y2="239.4"/>
</g>
<circle class="st1" cx="146.5" cy="167.2" r="146.5"/>
<polyline class="st2" points="224.3,43.1 261.6,43.1 261.6,80.1 "/>
<polyline class="st6" points="91,56.2 242.3,56.2 242.3,269.3 "/>
<path class="st5" d="M156.2,31.6c0-5.7,4.7-10.4,10.4-10.4c5.7,0,10.4,4.7,10.4,10.4S172.4,42,166.6,42
	C160.9,42,156.2,37.3,156.2,31.6"/>
<path class="st5" d="M195.2,31.6c0-15.8-12.8-28.6-28.6-28.6S138,15.8,138,31.6h-32.1v33.3h121.4V31.6H195.2z M166.6,42
	c-5.7,0-10.4-4.7-10.4-10.4s4.7-10.4,10.4-10.4c5.7,0,10.4,4.7,10.4,10.4S172.4,42,166.6,42z"/>
</svg>
