<?xml version="1.0" encoding="utf-8"?>
<!-- Generator: Adobe Illustrator 20.1.0, SVG Export Plug-In . SVG Version: 6.00 Build 0)  -->
<svg version="1.1" id="Layer_1" xmlns="http://www.w3.org/2000/svg" xmlns:xlink="http://www.w3.org/1999/xlink" x="0px" y="0px"
	 viewBox="0 0 328.2 383.6" style="enable-background:new 0 0 328.2 383.6;" xml:space="preserve">
<style type="text/css">
	.st0{fill:#8CE2AF;}
	.st1{fill:#2ECC71;}
	.st2{fill:#D4F8E3;stroke:#2ECC71;stroke-width:6;stroke-linecap:round;stroke-linejoin:round;stroke-miterlimit:10;}
	.st3{fill:#FFFFFF;stroke:#2ECC71;stroke-width:6;stroke-linecap:round;stroke-linejoin:round;stroke-miterlimit:10;}
	.st4{fill:#D4F8E3;}
	.st5{fill:none;stroke:#2ECC71;stroke-width:6;stroke-linecap:round;stroke-linejoin:round;stroke-miterlimit:10;}
	.st6{fill:#8CE2AF;stroke:#2ECC71;stroke-width:6;stroke-linecap:round;stroke-linejoin:round;stroke-miterlimit:10;}
	.st7{clip-path:url(#SVGID_2_);}
</style>
<g>
	<g>
		<path class="st0" d="M255.3,328.5c-0.3,0-0.5,0-0.8-0.1c-0.7-0.2-1.4-0.4-2-0.5c-1.6-0.4-3.2-0.8-4.8-1.4
			c-1.2-0.4-2.4-0.9-3.6-1.3c-4.6-1.7-9.4-3.4-14.1-5.5c-5.4-2.4-10.9-5.3-16.9-8.8c-9.2-5.4-18-12.2-26.8-20.7
			c-0.3-0.3-0.6-0.6-0.9-0.9l-0.3-0.3c-2.3-1.8-4.3-4-6.3-6.7l-7-7.8c0,0.6,0,1.5,0.1,2.7c0,0.8,0,2-0.3,3.2l0,1.6
			c0,2.2-0.1,4.4-0.1,6c-0.1,3.2-0.1,5.7-3.1,5.7c0,0,0,0,0,0c-1.3,0-3-0.7-3.1-3.8c0-0.6,0-1.6-0.1-3c0-0.6,0-1.3,0-1.9
			c-0.4,0-0.9,0-1.3,0c-0.8,0-1.6,0-2.4,0c-1,0-1.9-0.4-2.7-1.1c-1.5-1.6-1.7-4.3-1.6-10c-11.2,13.4-22.7,24-34.8,32.4
			c-15.1,10.4-31.6,17.8-49,22.1c-0.2,0.1-0.5,0.1-0.7,0.1c-1,0-1.9-0.5-2.5-1.3c-0.7-1-0.7-2.4,0-3.4c0.3-0.4,0.6-0.9,0.9-1.3
			c0.7-1,1.4-2,2.1-3c8.6-11.7,18.1-22,28.2-30.7c4.9-4.2,10.1-8,15.1-11.7l1.9-1.4c2.8-2.1,5.8-4.2,8.6-6.2
			c-3.2,0.3-6.4,0.5-9.6,0.7c-3.4,0.2-6.8,0.3-10,0.3c-5.2,0-10.2-0.3-15-0.8c-4.1-0.5-8.5-1.2-13.4-2.3c-7.1-1.6-12.8-3.1-18-4.6
			c-4.9-1.5-10-3.2-15.6-5.4c-6.4-2.5-12.2-5-17.6-7.6c-4.3-2-8.6-4.3-12.7-6.6l-2.7-1.4c-1.7-0.9-3.3-1.9-4.9-2.9
			c-0.6-0.4-1.2-0.8-1.9-1.1c-0.8-0.5-1.4-1-1.9-1.7c-0.6-0.8-0.8-1.9-0.4-2.8s1.2-1.7,2.2-1.9c15.9-3.6,32.1-5.4,48.3-5.4
			c20.8,0,42.2,3,64,9c-0.8-0.5-1.5-0.9-2.3-1.4c-10.8-6.5-21.3-13-30.6-21.8c-6.7-6.3-12.1-13.3-18.5-21.9
			c-8.1-10.8-15.9-22.9-23.3-35.8c-7-12.3-13.3-25-18.7-37.6c-1.9-4.4-3.6-9-5.3-13.4c-0.7-2-1.5-3.9-2.2-5.9
			c-0.2-0.6-0.2-1.2-0.2-1.4l0-0.2c0-1,0.5-2,1.4-2.5c0.5-0.3,1-0.5,1.6-0.5c0.5,0,0.9,0.1,1.3,0.3c0.3,0.1,0.5,0.3,0.8,0.4
			c0.6,0.3,1.2,0.6,1.8,0.9c11.7,6.5,23.4,14.1,35.6,23.3c20.6,15.5,39.5,33.7,56.3,53.9c0.1,0.2,0.3,0.3,0.4,0.5
			c0.4,0.5,0.9,1,1.3,1.6c0.5,0.8,1,1.5,1.4,2.3l0.5,0.9c0.8,0.9,1.4,1.8,2,2.7c0,0,0.1,0,0.1,0.1c0.3,0.2,0.6,0.4,0.9,0.7
			c0.1,0.1,0.1,0.1,0.2,0.2c0.4,0.3,0.9,0.6,1.3,1.2c10,12.2,18,23,24.9,33.8c-1-4.4-2.1-8.8-2.9-13.3c-1.6-8.5-2.9-17.2-4.2-25.7
			l-0.3-1.9c-0.5-3.1-0.7-6.2-0.9-9.2c0-0.7-0.1-1.4-0.1-2.2c-0.6-2.7-0.7-5.5-0.6-7.8l0-0.5c0-0.3,0-0.6,0.1-0.9
			c0-0.5,0.1-1.7,0.1-1.7c-0.2-0.7-0.3-1.4-0.3-2.1c0-2.2-0.1-4.4-0.1-6.6c-0.1-4.3-0.1-8.7,0-13c0.2-8.8,0.6-17.5,1.1-25.6
			c0.4-6,1.1-12.1,1.9-18l0.1-1.2c0.7-6,1.5-11.8,2.4-17.3c0.8-5,1.7-9.8,2.7-14.3l0.7-3.1c1.4-6.6,2.9-13.5,4.8-20.2
			c1.6-5.8,3.4-11.5,5.2-17c0.8-2.3,1.5-4.7,2.2-7c0.2-0.5,0.4-0.9,0.5-1.2c0.1-0.1,0.2-0.3,0.2-0.5c0.5-1,1.6-1.7,2.7-1.7
			c0.1,0,0.1,0,0.2,0c1.2,0.1,2.2,0.8,2.7,1.9c0.2,0.6,0.4,1.2,0.7,1.7c0.5,1.3,0.9,2.4,1.3,3.7c0.4,1.2,0.8,2.5,1.2,3.7
			c1.4,4.3,2.8,8.8,4,13.2c1.9,7.1,3.5,13.5,4.8,19.7c1.6,7.4,3.2,15.4,4.4,23.5c1.5,9.7,2.7,19.6,3.7,29.5
			c1.5,15.4,2,31.2,1.5,48.2c-0.4,12-1.1,21.2-2.4,29.9c-1.6,10.1-3,18.3-4.4,25.8c-0.7,3.6-1.5,7.3-2.4,10.9
			c13.1-20.5,29.3-40.7,50.9-63.4c22-23.2,47.7-43,76.6-58.9c0.5-0.3,1-0.4,1.4-0.4c0.8,0,1.6,0.3,2.2,1l0.3,0.3c0.8,0.8,1,2,0.6,3
			l-0.5,1.6c-0.4,1.2-0.8,2.4-1.2,3.5c-3.7,10.1-8,20.2-13.2,30.8c-5.1,10.4-10.7,20.7-16.6,30.5c-8.8,14.5-18.3,28-28.4,40.1
			c-6.1,7.4-13.2,13.8-21,19c-4.8,3.2-9.8,6.3-14.6,9.2c-1.9,1.2-3.8,2.3-5.7,3.5c0.6-0.2,1.2-0.3,1.8-0.5c1.6-0.4,3.3-0.8,4.9-1.2
			l2.3-0.6c0.1,0,0.1,0,0.2-0.1c2.7-0.7,5.5-1.2,8.3-1.5c0.6-0.2,1.4-0.4,2.2-0.6c14-3,28.4-4.6,42.6-4.6c1.1,0,2.3,0,3.4,0
			c8.5,0.1,16.3,0.6,23.7,1.4c5.1,0.5,10.2,1.4,15.1,2.3c2,0.4,4,0.7,6.1,1.1c0.7,0.1,1.2,0.3,1.8,0.5c0.3,0.1,0.5,0.2,0.8,0.3
			c1.1,0.3,2,1.3,2.1,2.5c0.2,1.2-0.4,2.3-1.4,2.9c-0.7,0.4-1.3,0.8-1.9,1.2c-1.3,0.8-2.6,1.6-3.9,2.4c-1.4,0.8-2.8,1.5-4.2,2.3
			c-4.3,2.4-8.7,4.8-13.2,6.9c-6.7,3.1-13.7,5.9-20.4,8.6l-1,0.4c-3.8,1.5-7.9,2.9-12,4.2c-5,1.5-10.1,2.7-15,4
			c-10.1,2.5-20.7,3.8-31.7,3.8c0,0,0,0,0,0c-4,0-8.1-0.2-12.3-0.5c-0.5,0-0.9,0-1.4,0c-0.4,0-0.9,0-1.3,0c-0.5,0-1,0-1.6,0
			c-0.4,0-0.7-0.1-1.1-0.2c-0.5,0-1,0-1.6-0.1c2,1.4,4,2.8,5.9,4.2l1.4,1c5.4,4,11,8.2,16.4,12.6c9.6,7.9,18.7,17.4,27.1,28.4
			c1.4,1.8,2.7,3.6,4,5.4c0.6,0.8,1.2,1.6,1.8,2.5c0.7,0.9,0.8,2.2,0.2,3.2l-0.2,0.3C257.4,327.9,256.4,328.5,255.3,328.5z"/>
		<path class="st1" d="M163.9,6c0.7,1.9,1.4,3.6,2,5.3c1.8,5.6,3.6,11.2,5.2,16.8c1.8,6.5,3.4,13,4.8,19.5
			c1.6,7.7,3.2,15.5,4.4,23.3c1.5,9.7,2.7,19.5,3.6,29.3c1.6,15.9,2,31.9,1.5,47.9c-0.3,9.9-0.9,19.8-2.4,29.5
			c-1.3,8.6-2.7,17.2-4.4,25.7c-1.4,7.3-3.3,14.5-5,21.7c-0.6,2.6-1.3,5.3-1.8,7.9c16.7-30.1,37.8-55.7,60.4-79.5
			c22.7-24,48.2-43.1,75.9-58.4c0.1,0.1,0.2,0.2,0.3,0.3c-0.6,1.7-1.1,3.4-1.8,5c-3.8,10.5-8.3,20.6-13.1,30.5
			c-5.1,10.4-10.6,20.5-16.5,30.2c-8.5,14-17.9,27.3-28.1,39.7c-6,7.3-12.9,13.4-20.4,18.4c-7.8,5.2-15.8,9.8-23.7,14.8
			c-4.7,3-9.4,6.2-14,9.3c-0.2,0.2-0.4,0.4-0.5,0.9c0.7-0.3,1.5-0.6,2.2-0.9c6.5-2.7,13.1-4.6,19.8-6.4c2.4-0.6,4.9-1.2,7.3-1.8
			c0.1,0,0.1,0,0.2-0.1c2.7-0.7,5.5-1.2,8.3-1.5c0.4-0.2,1.1-0.4,2.1-0.6c13.9-3,27.9-4.5,41.9-4.5c1.1,0,2.2,0,3.4,0
			c7.8,0.1,15.6,0.5,23.4,1.4c7,0.7,14,2.2,21,3.3c0.7,0.1,1.3,0.4,2.3,0.7c-2,1.3-3.8,2.5-5.6,3.5c-5.7,3.1-11.4,6.4-17.3,9.1
			c-7,3.3-14.1,6.1-21.3,9c-3.9,1.6-7.8,2.9-11.8,4.1c-4.9,1.5-9.9,2.7-14.8,3.9c-10.2,2.5-20.6,3.7-30.9,3.7c-4,0-8-0.2-12-0.5
			c-0.5,0-1.1-0.1-1.6-0.1c-0.9,0-1.9,0-2.9,0c0-0.1,0-0.1,0.1-0.2c-2.3,0-4.7-0.3-7.1-0.8c-0.3,0-0.5-0.1-0.8-0.1c0,0,0-0.1,0-0.1
			c-1-0.1-1.9-0.2-2.8-0.3h-3.7c0,0.1,0,0.1,0,0.2c2.2,0.9,4.2,2.2,6.1,3.8c3.3,2.2,6.5,4.4,9.7,6.7c5.9,4.4,11.9,8.8,17.7,13.5
			c9.8,8.1,18.6,17.5,26.6,27.9c2,2.6,3.8,5.2,5.8,7.8c-0.1,0.1-0.1,0.2-0.2,0.3c-2.2-0.6-4.5-1.1-6.6-1.9
			c-5.8-2.1-11.7-4.1-17.5-6.7c-5.7-2.5-11.2-5.5-16.6-8.7c-9.4-5.5-18.1-12.4-26.3-20.3c-0.4-0.4-0.9-0.9-1.3-1.3c0,0,0,0,0,0
			c-2.3-1.8-4.2-4-5.9-6.4c-4.4-4.9-8.8-9.9-13.3-14.9c0,0.5-0.1,1.2-0.1,1.8c0.1,4.5,0.2,9.1,0.2,13.6c-0.4,0.5-0.9,0.9-1.5,0.9
			c-0.9,0-1.8,0-2.7,0c-0.8,0-1.6,0-2.4,0c-1.7,0-1.4-5.5-1.2-14.9c0-0.5,0-1-0.2-1.6c-11.7,15-24.6,28.1-39.5,38.3
			c-15,10.3-31,17.5-48.1,21.7c1-1.4,2-2.9,3-4.3c8.3-11.3,17.5-21.4,27.8-30.2c5.5-4.6,11.2-8.8,16.9-13.1
			c4.6-3.4,9.2-6.6,13.9-9.8c1.3-0.9,2.8-1.6,4.2-2.7c-0.3,0-0.6,0-0.9,0c-0.2,0-0.3,0-0.5,0c-6.5,0.5-13.1,1.2-19.6,1.6
			c-3.3,0.2-6.5,0.3-9.8,0.3c-4.9,0-9.8-0.2-14.7-0.8c-4.4-0.5-8.7-1.3-13-2.3c-6-1.4-11.9-2.8-17.8-4.6c-5.2-1.5-10.3-3.4-15.4-5.4
			c-5.9-2.3-11.7-4.8-17.5-7.5c-5.1-2.4-10.2-5.2-15.2-7.9c-2.2-1.2-4.4-2.6-6.6-3.9c-0.4-0.2-0.7-0.5-1.1-0.9
			c16-3.6,31.9-5.3,47.6-5.3c28.3,0,56.3,5.5,84.1,15.5c-1-0.8-1.8-1.6-2.8-2.2c-6-3.8-12-7.6-18.1-11.3
			c-10.5-6.3-20.9-12.8-30.1-21.4c-6.8-6.3-12.5-13.9-18.1-21.5c-8.4-11.2-16-23.1-23.1-35.5c-6.8-12-13-24.4-18.5-37.2
			c-2.7-6.3-5-12.8-7.5-19.2c0-0.1,0-0.2,0-0.5c0.9,0.4,1.7,0.8,2.5,1.3c12.2,6.7,23.9,14.5,35.3,23.1c20.3,15.3,39,33.1,55.8,53.5
			c0.5,0.6,1.1,1.2,1.5,1.8c0.7,1.1,1.4,2.2,2,3.3c0.8,0.9,1.5,1.8,2.1,2.8c0,0.1,0.1,0.1,0.1,0.2c0.5,0.3,1,0.6,1.4,1
			c0.4,0.3,0.8,0.5,1.1,0.9c9.3,11.3,18.2,23.1,26.1,35.7c2.7,4.3,5.1,8.9,7.7,13.4c0.2,0.3,0.4,0.7,0.8,0.9
			c-0.6-2.7-1.3-5.4-1.9-8.1c-1.9-8-4-15.9-5.5-23.9c-1.7-9.1-3.1-18.3-4.4-27.4c-0.6-3.7-0.7-7.6-1-11.3c-0.6-2.3-0.6-4.9-0.6-7.4
			c0-0.2,0-0.4,0-0.7c0,0,0,0,0.1,0c0-0.9,0.1-1.8,0.1-2.7c-0.2-0.5-0.3-1.1-0.3-1.7c0-6.5-0.3-13-0.1-19.5c0.2-8.5,0.6-17,1.1-25.5
			c0.4-6.3,1.2-12.7,2-19c0.7-5.7,1.5-11.5,2.4-17.1c0.8-4.8,1.6-9.5,2.7-14.2c1.7-7.8,3.3-15.6,5.4-23.2c2.2-8.1,4.9-15.9,7.4-23.9
			C163.4,6.9,163.6,6.6,163.9,6 M168.7,273.2c0,0,0.1,1.1,0.1,3.8c0,0.9-0.1,1.9-0.3,2.7C168.5,276.2,168.6,273.2,168.7,273.2
			 M168.5,279.7c-0.1,4.9-0.2,10.7-0.3,10.7c0,0-0.1-1.1-0.1-3.8c0-1.9-0.1-3.8-0.1-5.7C168.2,280.5,168.3,280.1,168.5,279.7
			 M163.9,0c-2.3,0-4.4,1.3-5.4,3.3c-0.1,0.2-0.1,0.3-0.2,0.4c-0.2,0.4-0.5,1-0.8,1.7c-0.7,2.3-1.5,4.6-2.2,7
			c-1.8,5.6-3.7,11.3-5.2,17.1c-1.8,6.7-3.4,13.7-4.8,20.3l-0.7,3.1c-1,4.6-1.9,9.5-2.7,14.5c-0.9,5.5-1.7,11.4-2.4,17.4l-0.1,1.2
			c-0.7,5.9-1.5,12-1.9,18.1c-0.6,8.2-0.9,16.9-1.2,25.8c-0.1,4.4,0,8.9,0,13.1c0,2.2,0.1,4.4,0.1,6.6c0,0.8,0.1,1.6,0.3,2.4
			c0,0.3,0,0.6,0,1c-0.1,0.5-0.1,0.9-0.1,1.4l0,0.2l0,0.2c-0.1,2.4,0,5.3,0.6,8.2c0,0.6,0.1,1.3,0.1,1.9c0.2,3.1,0.4,6.2,0.9,9.4
			l0.3,1.8c1.2,7.9,2.4,16,3.9,24.1c-4.8-6.7-10.2-13.7-16.3-21.2c-0.7-0.9-1.4-1.4-1.9-1.7l-0.1-0.1c-0.3-0.2-0.5-0.4-0.7-0.5
			c-0.5-0.8-1.1-1.5-1.8-2.3c-0.1-0.2-0.3-0.4-0.4-0.6c-0.5-0.8-1-1.6-1.5-2.4c-0.6-0.9-1.1-1.5-1.6-2c-0.1-0.1-0.2-0.3-0.4-0.4
			c-16.9-20.5-36.1-38.8-56.8-54.4c-12.3-9.3-24.1-17-36-23.5c-0.7-0.4-1.4-0.7-2-1c-0.3-0.1-0.5-0.2-0.8-0.4
			c-0.8-0.4-1.7-0.6-2.6-0.6c-1.1,0-2.2,0.3-3.2,0.9c-1.8,1.1-2.8,3-2.8,5.1l0,0.1c0,0.4-0.1,1.4,0.4,2.6c0.8,1.9,1.5,3.9,2.2,5.9
			c1.7,4.5,3.4,9.1,5.3,13.5c5.4,12.7,11.7,25.4,18.8,37.9c7.4,13,15.3,25.2,23.5,36.2c5.1,6.8,11.4,15.3,18.8,22.3
			c5.6,5.3,11.6,9.7,17.8,13.8c-15.8-3.2-31.5-4.8-46.8-4.8c-16.4,0-32.9,1.8-49,5.5c-2,0.4-3.6,1.9-4.3,3.8c-0.7,1.9-0.4,4,0.8,5.7
			c0.8,1,1.7,1.8,2.8,2.5c0.6,0.4,1.2,0.7,1.8,1.1c1.6,1,3.3,2,5,3c0.9,0.5,1.8,1,2.6,1.4c4.2,2.3,8.5,4.6,12.8,6.7
			c5.5,2.6,11.4,5.1,17.8,7.6c5.7,2.2,10.9,4,15.9,5.5c5.3,1.6,11.1,3,18.2,4.7c5,1.1,9.5,1.9,13.7,2.4c4.9,0.6,10.1,0.8,15.4,0.8
			c3,0,6-0.1,9.1-0.3l-1.9,1.4c-5,3.7-10.3,7.6-15.2,11.9c-10.3,8.8-20,19.3-28.7,31.2c-0.8,1-1.5,2.1-2.2,3.1
			c-0.3,0.4-0.6,0.9-0.9,1.3c-1.4,2.1-1.4,4.8,0,6.8c1.1,1.6,3,2.6,4.9,2.6c0.5,0,1-0.1,1.4-0.2c17.8-4.4,34.7-12,50-22.6
			c10.6-7.3,20.7-16.3,30.5-27.2c0.3,1.9,1,3.2,2.1,4.4c1.3,1.3,3,2,4.8,2.1c0.3,0,0.5,0,0.8,0c0,0.9,0,1.5,0,2c0,0.4,0,0.7,0,0.9
			c0.3,3.8,3.2,5.8,6,5.8c2.8,0,5.7-2,6-5.7c0-0.2,0-0.4,0-0.8c0-0.5,0-1.2,0.1-2.1c0-1.6,0.1-3.8,0.1-6l2,2.2
			c2.1,2.9,4.2,5.2,6.6,7.1l0.2,0.2c0.3,0.3,0.6,0.6,1,1c9,8.7,18,15.6,27.4,21.1c6.1,3.6,11.7,6.5,17.2,9c4.8,2.1,9.6,3.9,14.3,5.6
			c1.2,0.4,2.4,0.9,3.6,1.3c1.8,0.6,3.4,1.1,5.1,1.5c0.7,0.2,1.3,0.3,2,0.5c0.5,0.2,1.1,0.2,1.6,0.2c2.2,0,4.2-1.2,5.3-3.2l0.2-0.3
			c1.1-2,0.9-4.6-0.4-6.4c-0.6-0.8-1.2-1.6-1.8-2.4c-1.3-1.8-2.7-3.6-4-5.4c-8.5-11.2-17.8-20.9-27.6-28.9
			c-5.1-4.2-10.4-8.2-15.6-12c3.1,0.2,6.2,0.3,9.1,0.3c11.2,0,22.1-1.3,32.4-3.9l0.1,0c4.9-1.2,10-2.5,15-4
			c4.2-1.3,8.4-2.7,12.3-4.3l1-0.4c6.8-2.7,13.7-5.5,20.5-8.7c4.6-2.1,9.1-4.6,13.4-7c1.4-0.8,2.8-1.5,4.2-2.3
			c1.4-0.8,2.7-1.6,4.1-2.5c0.6-0.4,1.2-0.8,1.8-1.2c2-1.2,3.1-3.6,2.8-5.9c-0.3-2.3-2-4.3-4.2-5c-0.3-0.1-0.5-0.2-0.8-0.2
			c-0.7-0.2-1.4-0.5-2.3-0.6c-2-0.3-4-0.7-6-1c-5-0.9-10.1-1.8-15.3-2.3c-7.5-0.8-15.3-1.2-23.9-1.4c-1.2,0-2.3,0-3.5,0
			c-14.4,0-29,1.6-43.2,4.7c-0.8,0.2-1.5,0.3-2.3,0.6c-0.1,0-0.1,0-0.2,0c1.8-1.1,3.6-2.3,5.3-3.5c8.1-5.4,15.4-12,21.7-19.6
			c10.1-12.2,19.8-25.8,28.6-40.4c6-9.9,11.7-20.2,16.8-30.7c5.2-10.7,9.6-20.9,13.3-31.1c0.4-1.2,0.9-2.4,1.3-3.6
			c0.2-0.5,0.4-1,0.5-1.6c0.7-2.1,0.2-4.4-1.3-6.1l-0.3-0.3c-1.2-1.3-2.8-1.9-4.4-1.9c-1,0-2,0.2-2.9,0.7
			c-29.1,16.1-55.2,36.1-77.3,59.5c-17.2,18.1-31,34.6-42.5,51c1.2-6.4,2.4-13.4,3.6-21.7c1.3-8.8,2.1-18.1,2.5-30.2
			c0.5-16.9,0-33.3-1.5-48.6c-1-9.9-2.2-19.9-3.7-29.6c-1.2-8.2-2.9-16.2-4.5-23.7c-1.3-6.2-2.9-12.7-4.9-19.9
			c-1.2-4.5-2.7-9-4.1-13.4c-0.4-1.2-0.8-2.5-1.2-3.7c-0.4-1.4-0.9-2.6-1.4-3.9c-0.2-0.6-0.4-1.1-0.7-1.7c-0.8-2.2-2.9-3.8-5.3-3.9
			C164.2,0,164.1,0,163.9,0L163.9,0z"/>
	</g>
	<g>
		<g>
			<path class="st0" d="M255.3,328.5c-0.3,0-0.5,0-0.8-0.1c-0.7-0.2-1.4-0.4-2-0.5c-1.6-0.4-3.2-0.8-4.8-1.4
				c-1.2-0.4-2.4-0.9-3.6-1.3c-4.6-1.7-9.4-3.4-14.1-5.5c-5.4-2.4-10.9-5.3-16.9-8.8c-9.2-5.4-18-12.2-26.8-20.7
				c-0.3-0.3-0.6-0.6-0.9-0.9l-0.3-0.3c-2.3-1.8-4.3-4-6.3-6.7l-7-7.8c0,0.6,0,1.5,0.1,2.7c0,0.8,0,2-0.3,3.2l0,1.6
				c0,2.2-0.1,4.4-0.1,6c-0.1,3.2-0.1,5.7-3.1,5.7c0,0,0,0,0,0c-1.3,0-3-0.7-3.1-3.8c0-0.6,0-1.6-0.1-3c0-0.6,0-1.3,0-1.9
				c-0.4,0-0.9,0-1.3,0c-0.8,0-1.6,0-2.4,0c-1,0-1.9-0.4-2.7-1.1c-1.5-1.6-1.7-4.3-1.6-10c-11.2,13.4-22.7,24-34.8,32.4
				c-15.1,10.4-31.6,17.8-49,22.1c-0.2,0.1-0.5,0.1-0.7,0.1c-1,0-1.9-0.5-2.5-1.3c-0.7-1-0.7-2.4,0-3.4c0.3-0.4,0.6-0.9,0.9-1.3
				c0.7-1,1.4-2,2.1-3c8.6-11.7,18.1-22,28.2-30.7c4.9-4.2,10.1-8,15.1-11.7l1.9-1.4c2.8-2.1,5.8-4.2,8.6-6.2
				c-3.2,0.3-6.4,0.5-9.6,0.7c-3.4,0.2-6.8,0.3-10,0.3c-5.2,0-10.2-0.3-15-0.8c-4.1-0.5-8.5-1.2-13.4-2.3c-7.1-1.6-12.8-3.1-18-4.6
				c-4.9-1.5-10-3.2-15.6-5.4c-6.4-2.5-12.2-5-17.6-7.6c-4.3-2-8.6-4.3-12.7-6.6l-2.7-1.4c-1.7-0.9-3.3-1.9-4.9-2.9
				c-0.6-0.4-1.2-0.8-1.9-1.1c-0.8-0.5-1.4-1-1.9-1.7c-0.6-0.8-0.8-1.9-0.4-2.8s1.2-1.7,2.2-1.9c15.9-3.6,32.1-5.4,48.3-5.4
				c20.8,0,42.2,3,64,9c-0.8-0.5-1.5-0.9-2.3-1.4c-10.8-6.5-21.3-13-30.6-21.8c-6.7-6.3-12.1-13.3-18.5-21.9
				c-8.1-10.8-15.9-22.9-23.3-35.8c-7-12.3-13.3-25-18.7-37.6c-1.9-4.4-3.6-9-5.3-13.4c-0.7-2-1.5-3.9-2.2-5.9
				c-0.2-0.6-0.2-1.2-0.2-1.4l0-0.2c0-1,0.5-2,1.4-2.5c0.5-0.3,1-0.5,1.6-0.5c0.5,0,0.9,0.1,1.3,0.3c0.3,0.1,0.5,0.3,0.8,0.4
				c0.6,0.3,1.2,0.6,1.8,0.9c11.7,6.5,23.4,14.1,35.6,23.3c20.6,15.5,39.5,33.7,56.3,53.9c0.1,0.2,0.3,0.3,0.4,0.5
				c0.4,0.5,0.9,1,1.3,1.6c0.5,0.8,1,1.5,1.4,2.3l0.5,0.9c0.8,0.9,1.4,1.8,2,2.7c0,0,0.1,0,0.1,0.1c0.3,0.2,0.6,0.4,0.9,0.7
				c0.1,0.1,0.1,0.1,0.2,0.2c0.4,0.3,0.9,0.6,1.3,1.2c10,12.2,18,23,24.9,33.8c-1-4.4-2.1-8.8-2.9-13.3c-1.6-8.5-2.9-17.2-4.2-25.7
				l-0.3-1.9c-0.5-3.1-0.7-6.2-0.9-9.2c0-0.7-0.1-1.4-0.1-2.2c-0.6-2.7-0.7-5.5-0.6-7.8l0-0.5c0-0.3,0-0.6,0.1-0.9
				c0-0.5,0.1-1.7,0.1-1.7c-0.2-0.7-0.3-1.4-0.3-2.1c0-2.2-0.1-4.4-0.1-6.6c-0.1-4.3-0.1-8.7,0-13c0.2-8.8,0.6-17.5,1.1-25.6
				c0.4-6,1.1-12.1,1.9-18l0.1-1.2c0.7-6,1.5-11.8,2.4-17.3c0.8-5,1.7-9.8,2.7-14.3l0.7-3.1c1.4-6.6,2.9-13.5,4.8-20.2
				c1.6-5.8,3.4-11.5,5.2-17c0.8-2.3,1.5-4.7,2.2-7c0.2-0.5,0.4-0.9,0.5-1.2c0.1-0.1,0.2-0.3,0.2-0.5c0.5-1,1.6-1.7,2.7-1.7
				c0.1,0,0.1,0,0.2,0c1.2,0.1,2.2,0.8,2.7,1.9c0.2,0.6,0.4,1.2,0.7,1.7c0.5,1.3,0.9,2.4,1.3,3.7c0.4,1.2,0.8,2.5,1.2,3.7
				c1.4,4.3,2.8,8.8,4,13.2c1.9,7.1,3.5,13.5,4.8,19.7c1.6,7.4,3.2,15.4,4.4,23.5c1.5,9.7,2.7,19.6,3.7,29.5
				c1.5,15.4,2,31.2,1.5,48.2c-0.4,12-1.1,21.2-2.4,29.9c-1.6,10.1-3,18.3-4.4,25.8c-0.7,3.6-1.5,7.3-2.4,10.9
				c13.1-20.5,29.3-40.7,50.9-63.4c22-23.2,47.7-43,76.6-58.9c0.5-0.3,1-0.4,1.4-0.4c0.8,0,1.6,0.3,2.2,1l0.3,0.3c0.8,0.8,1,2,0.6,3
				l-0.5,1.6c-0.4,1.2-0.8,2.4-1.2,3.5c-3.7,10.1-8,20.2-13.2,30.8c-5.1,10.4-10.7,20.7-16.6,30.5c-8.8,14.5-18.3,28-28.4,40.1
				c-6.1,7.4-13.2,13.8-21,19c-4.8,3.2-9.8,6.3-14.6,9.2c-1.9,1.2-3.8,2.3-5.7,3.5c0.6-0.2,1.2-0.3,1.8-0.5c1.6-0.4,3.3-0.8,4.9-1.2
				l2.3-0.6c0.1,0,0.1,0,0.2-0.1c2.7-0.7,5.5-1.2,8.3-1.5c0.6-0.2,1.4-0.4,2.2-0.6c14-3,28.4-4.6,42.6-4.6c1.1,0,2.3,0,3.4,0
				c8.5,0.1,16.3,0.6,23.7,1.4c5.1,0.5,10.2,1.4,15.1,2.3c2,0.4,4,0.7,6.1,1.1c0.7,0.1,1.2,0.3,1.8,0.5c0.3,0.1,0.5,0.2,0.8,0.3
				c1.1,0.3,2,1.3,2.1,2.5c0.2,1.2-0.4,2.3-1.4,2.9c-0.7,0.4-1.3,0.8-1.9,1.2c-1.3,0.8-2.6,1.6-3.9,2.4c-1.4,0.8-2.8,1.5-4.2,2.3
				c-4.3,2.4-8.7,4.8-13.2,6.9c-6.7,3.1-13.7,5.9-20.4,8.6l-1,0.4c-3.8,1.5-7.9,2.9-12,4.2c-5,1.5-10.1,2.7-15,4
				c-10.1,2.5-20.7,3.8-31.7,3.8c0,0,0,0,0,0c-4,0-8.1-0.2-12.3-0.5c-0.5,0-0.9,0-1.4,0c-0.4,0-0.9,0-1.3,0c-0.5,0-1,0-1.6,0
				c-0.4,0-0.7-0.1-1.1-0.2c-0.5,0-1,0-1.6-0.1c2,1.4,4,2.8,5.9,4.2l1.4,1c5.4,4,11,8.2,16.4,12.6c9.6,7.9,18.7,17.4,27.1,28.4
				c1.4,1.8,2.7,3.6,4,5.4c0.6,0.8,1.2,1.6,1.8,2.5c0.7,0.9,0.8,2.2,0.2,3.2l-0.2,0.3C257.4,327.9,256.4,328.5,255.3,328.5z"/>
			<path class="st1" d="M163.9,6c0.7,1.9,1.4,3.6,2,5.3c1.8,5.6,3.6,11.2,5.2,16.8c1.8,6.5,3.4,13,4.8,19.5
				c1.6,7.7,3.2,15.5,4.4,23.3c1.5,9.7,2.7,19.5,3.6,29.3c1.6,15.9,2,31.9,1.5,47.9c-0.3,9.9-0.9,19.8-2.4,29.5
				c-1.3,8.6-2.7,17.2-4.4,25.7c-1.4,7.3-3.3,14.5-5,21.7c-0.6,2.6-1.3,5.3-1.8,7.9c16.7-30.1,37.8-55.7,60.4-79.5
				c22.7-24,48.2-43.1,75.9-58.4c0.1,0.1,0.2,0.2,0.3,0.3c-0.6,1.7-1.1,3.4-1.8,5c-3.8,10.5-8.3,20.6-13.1,30.5
				c-5.1,10.4-10.6,20.5-16.5,30.2c-8.5,14-17.9,27.3-28.1,39.7c-6,7.3-12.9,13.4-20.4,18.4c-7.8,5.2-15.8,9.8-23.7,14.8
				c-4.7,3-9.4,6.2-14,9.3c-0.2,0.2-0.4,0.4-0.5,0.9c0.7-0.3,1.5-0.6,2.2-0.9c6.5-2.7,13.1-4.6,19.8-6.4c2.4-0.6,4.9-1.2,7.3-1.8
				c0.1,0,0.1,0,0.2-0.1c2.7-0.7,5.5-1.2,8.3-1.5c0.4-0.2,1.1-0.4,2.1-0.6c13.9-3,27.9-4.5,41.9-4.5c1.1,0,2.2,0,3.4,0
				c7.8,0.1,15.6,0.5,23.4,1.4c7,0.7,14,2.2,21,3.3c0.7,0.1,1.3,0.4,2.3,0.7c-2,1.3-3.8,2.5-5.6,3.5c-5.7,3.1-11.4,6.4-17.3,9.1
				c-7,3.3-14.1,6.1-21.3,9c-3.9,1.6-7.8,2.9-11.8,4.1c-4.9,1.5-9.9,2.7-14.8,3.9c-10.2,2.5-20.6,3.7-30.9,3.7c-4,0-8-0.2-12-0.5
				c-0.5,0-1.1-0.1-1.6-0.1c-0.9,0-1.9,0-2.9,0c0-0.1,0-0.1,0.1-0.2c-2.3,0-4.7-0.3-7.1-0.8c-0.3,0-0.5-0.1-0.8-0.1c0,0,0-0.1,0-0.1
				c-1-0.1-1.9-0.2-2.8-0.3h-3.7c0,0.1,0,0.1,0,0.2c2.2,0.9,4.2,2.2,6.1,3.8c3.3,2.2,6.5,4.4,9.7,6.7c5.9,4.4,11.9,8.8,17.7,13.5
				c9.8,8.1,18.6,17.5,26.6,27.9c2,2.6,3.8,5.2,5.8,7.8c-0.1,0.1-0.1,0.2-0.2,0.3c-2.2-0.6-4.5-1.1-6.6-1.9
				c-5.8-2.1-11.7-4.1-17.5-6.7c-5.7-2.5-11.2-5.5-16.6-8.7c-9.4-5.5-18.1-12.4-26.3-20.3c-0.4-0.4-0.9-0.9-1.3-1.3c0,0,0,0,0,0
				c-2.3-1.8-4.2-4-5.9-6.4c-4.4-4.9-8.8-9.9-13.3-14.9c0,0.5-0.1,1.2-0.1,1.8c0.1,4.5,0.2,9.1,0.2,13.6c-0.4,0.5-0.9,0.9-1.5,0.9
				c-0.9,0-1.8,0-2.7,0c-0.8,0-1.6,0-2.4,0c-1.7,0-1.4-5.5-1.2-14.9c0-0.5,0-1-0.2-1.6c-11.7,15-24.6,28.1-39.5,38.3
				c-15,10.3-31,17.5-48.1,21.7c1-1.4,2-2.9,3-4.3c8.3-11.3,17.5-21.4,27.8-30.2c5.5-4.6,11.2-8.8,16.9-13.1
				c4.6-3.4,9.2-6.6,13.9-9.8c1.3-0.9,2.8-1.6,4.2-2.7c-0.3,0-0.6,0-0.9,0c-0.2,0-0.3,0-0.5,0c-6.5,0.5-13.1,1.2-19.6,1.6
				c-3.3,0.2-6.5,0.3-9.8,0.3c-4.9,0-9.8-0.2-14.7-0.8c-4.4-0.5-8.7-1.3-13-2.3c-6-1.4-11.9-2.8-17.8-4.6
				c-5.2-1.5-10.3-3.4-15.4-5.4c-5.9-2.3-11.7-4.8-17.5-7.5c-5.1-2.4-10.2-5.2-15.2-7.9c-2.2-1.2-4.4-2.6-6.6-3.9
				c-0.4-0.2-0.7-0.5-1.1-0.9c16-3.6,31.9-5.3,47.6-5.3c28.3,0,56.3,5.5,84.1,15.5c-1-0.8-1.8-1.6-2.8-2.2c-6-3.8-12-7.6-18.1-11.3
				c-10.5-6.3-20.9-12.8-30.1-21.4c-6.8-6.3-12.5-13.9-18.1-21.5c-8.4-11.2-16-23.1-23.1-35.5c-6.8-12-13-24.4-18.5-37.2
				c-2.7-6.3-5-12.8-7.5-19.2c0-0.1,0-0.2,0-0.5c0.9,0.4,1.7,0.8,2.5,1.3c12.2,6.7,23.9,14.5,35.3,23.1c20.3,15.3,39,33.1,55.8,53.5
				c0.5,0.6,1.1,1.2,1.5,1.8c0.7,1.1,1.4,2.2,2,3.3c0.8,0.9,1.5,1.8,2.1,2.8c0,0.1,0.1,0.1,0.1,0.2c0.5,0.3,1,0.6,1.4,1
				c0.4,0.3,0.8,0.5,1.1,0.9c9.3,11.3,18.2,23.1,26.1,35.7c2.7,4.3,5.1,8.9,7.7,13.4c0.2,0.3,0.4,0.7,0.8,0.9
				c-0.6-2.7-1.3-5.4-1.9-8.1c-1.9-8-4-15.9-5.5-23.9c-1.7-9.1-3.1-18.3-4.4-27.4c-0.6-3.7-0.7-7.6-1-11.3c-0.6-2.3-0.6-4.9-0.6-7.4
				c0-0.2,0-0.4,0-0.7c0,0,0,0,0.1,0c0-0.9,0.1-1.8,0.1-2.7c-0.2-0.5-0.3-1.1-0.3-1.7c0-6.5-0.3-13-0.1-19.5
				c0.2-8.5,0.6-17,1.1-25.5c0.4-6.3,1.2-12.7,2-19c0.7-5.7,1.5-11.5,2.4-17.1c0.8-4.8,1.6-9.5,2.7-14.2c1.7-7.8,3.3-15.6,5.4-23.2
				c2.2-8.1,4.9-15.9,7.4-23.9C163.4,6.9,163.6,6.6,163.9,6 M168.7,273.2c0,0,0.1,1.1,0.1,3.8c0,0.9-0.1,1.9-0.3,2.7
				C168.5,276.2,168.6,273.2,168.7,273.2 M168.5,279.7c-0.1,4.9-0.2,10.7-0.3,10.7c0,0-0.1-1.1-0.1-3.8c0-1.9-0.1-3.8-0.1-5.7
				C168.2,280.5,168.3,280.1,168.5,279.7 M163.9,0c-2.3,0-4.4,1.3-5.4,3.3c-0.1,0.2-0.1,0.3-0.2,0.4c-0.2,0.4-0.5,1-0.8,1.7
				c-0.7,2.3-1.5,4.6-2.2,7c-1.8,5.6-3.7,11.3-5.2,17.1c-1.8,6.7-3.4,13.7-4.8,20.3l-0.7,3.1c-1,4.6-1.9,9.5-2.7,14.5
				c-0.9,5.5-1.7,11.4-2.4,17.4l-0.1,1.2c-0.7,5.9-1.5,12-1.9,18.1c-0.6,8.2-0.9,16.9-1.2,25.8c-0.1,4.4,0,8.9,0,13.1
				c0,2.2,0.1,4.4,0.1,6.6c0,0.8,0.1,1.6,0.3,2.4c0,0.3,0,0.6,0,1c-0.1,0.5-0.1,0.9-0.1,1.4l0,0.2l0,0.2c-0.1,2.4,0,5.3,0.6,8.2
				c0,0.6,0.1,1.3,0.1,1.9c0.2,3.1,0.4,6.2,0.9,9.4l0.3,1.8c1.2,7.9,2.4,16,3.9,24.1c-4.8-6.7-10.2-13.7-16.3-21.2
				c-0.7-0.9-1.4-1.4-1.9-1.7l-0.1-0.1c-0.3-0.2-0.5-0.4-0.7-0.5c-0.5-0.8-1.1-1.5-1.8-2.3c-0.1-0.2-0.3-0.4-0.4-0.6
				c-0.5-0.8-1-1.6-1.5-2.4c-0.6-0.9-1.1-1.5-1.6-2c-0.1-0.1-0.2-0.3-0.4-0.4c-16.9-20.5-36.1-38.8-56.8-54.4
				c-12.3-9.3-24.1-17-36-23.5c-0.7-0.4-1.4-0.7-2-1c-0.3-0.1-0.5-0.2-0.8-0.4c-0.8-0.4-1.7-0.6-2.6-0.6c-1.1,0-2.2,0.3-3.2,0.9
				c-1.8,1.1-2.8,3-2.8,5.1l0,0.1c0,0.4-0.1,1.4,0.4,2.6c0.8,1.9,1.5,3.9,2.2,5.9c1.7,4.5,3.4,9.1,5.3,13.5
				c5.4,12.7,11.7,25.4,18.8,37.9c7.4,13,15.3,25.2,23.5,36.2c5.1,6.8,11.4,15.3,18.8,22.3c5.6,5.3,11.6,9.7,17.8,13.8
				c-15.8-3.2-31.5-4.8-46.8-4.8c-16.4,0-32.9,1.8-49,5.5c-2,0.4-3.6,1.9-4.3,3.8c-0.7,1.9-0.4,4,0.8,5.7c0.8,1,1.7,1.8,2.8,2.5
				c0.6,0.4,1.2,0.7,1.8,1.1c1.6,1,3.3,2,5,3c0.9,0.5,1.8,1,2.6,1.4c4.2,2.3,8.5,4.6,12.8,6.7c5.5,2.6,11.4,5.1,17.8,7.6
				c5.7,2.2,10.9,4,15.9,5.5c5.3,1.6,11.1,3,18.2,4.7c5,1.1,9.5,1.9,13.7,2.4c4.9,0.6,10.1,0.8,15.4,0.8c3,0,6-0.1,9.1-0.3l-1.9,1.4
				c-5,3.7-10.3,7.6-15.2,11.9c-10.3,8.8-20,19.3-28.7,31.2c-0.8,1-1.5,2.1-2.2,3.1c-0.3,0.4-0.6,0.9-0.9,1.3
				c-1.4,2.1-1.4,4.8,0,6.8c1.1,1.6,3,2.6,4.9,2.6c0.5,0,1-0.1,1.4-0.2c17.8-4.4,34.7-12,50-22.6c10.6-7.3,20.7-16.3,30.5-27.2
				c0.3,1.9,1,3.2,2.1,4.4c1.3,1.3,3,2,4.8,2.1c0.3,0,0.5,0,0.8,0c0,0.9,0,1.5,0,2c0,0.4,0,0.7,0,0.9c0.3,3.8,3.2,5.8,6,5.8
				c2.8,0,5.7-2,6-5.7c0-0.2,0-0.4,0-0.8c0-0.5,0-1.2,0.1-2.1c0-1.6,0.1-3.8,0.1-6l2,2.2c2.1,2.9,4.2,5.2,6.6,7.1l0.2,0.2
				c0.3,0.3,0.6,0.6,1,1c9,8.7,18,15.6,27.4,21.1c6.1,3.6,11.7,6.5,17.2,9c4.8,2.1,9.6,3.9,14.3,5.6c1.2,0.4,2.4,0.9,3.6,1.3
				c1.8,0.6,3.4,1.1,5.1,1.5c0.7,0.2,1.3,0.3,2,0.5c0.5,0.2,1.1,0.2,1.6,0.2c2.2,0,4.2-1.2,5.3-3.2l0.2-0.3c1.1-2,0.9-4.6-0.4-6.4
				c-0.6-0.8-1.2-1.6-1.8-2.4c-1.3-1.8-2.7-3.6-4-5.4c-8.5-11.2-17.8-20.9-27.6-28.9c-5.1-4.2-10.4-8.2-15.6-12
				c3.1,0.2,6.2,0.3,9.1,0.3c11.2,0,22.1-1.3,32.4-3.9l0.1,0c4.9-1.2,10-2.5,15-4c4.2-1.3,8.4-2.7,12.3-4.3l1-0.4
				c6.8-2.7,13.7-5.5,20.5-8.7c4.6-2.1,9.1-4.6,13.4-7c1.4-0.8,2.8-1.5,4.2-2.3c1.4-0.8,2.7-1.6,4.1-2.5c0.6-0.4,1.2-0.8,1.8-1.2
				c2-1.2,3.1-3.6,2.8-5.9c-0.3-2.3-2-4.3-4.2-5c-0.3-0.1-0.5-0.2-0.8-0.2c-0.7-0.2-1.4-0.5-2.3-0.6c-2-0.3-4-0.7-6-1
				c-5-0.9-10.1-1.8-15.3-2.3c-7.5-0.8-15.3-1.2-23.9-1.4c-1.2,0-2.3,0-3.5,0c-14.4,0-29,1.6-43.2,4.7c-0.8,0.2-1.5,0.3-2.3,0.6
				c-0.1,0-0.1,0-0.2,0c1.8-1.1,3.6-2.3,5.3-3.5c8.1-5.4,15.4-12,21.7-19.6c10.1-12.2,19.8-25.8,28.6-40.4
				c6-9.9,11.7-20.2,16.8-30.7c5.2-10.7,9.6-20.9,13.3-31.1c0.4-1.2,0.9-2.4,1.3-3.6c0.2-0.5,0.4-1,0.5-1.6c0.7-2.1,0.2-4.4-1.3-6.1
				l-0.3-0.3c-1.2-1.3-2.8-1.9-4.4-1.9c-1,0-2,0.2-2.9,0.7c-29.1,16.1-55.2,36.1-77.3,59.5c-17.2,18.1-31,34.6-42.5,51
				c1.2-6.4,2.4-13.4,3.6-21.7c1.3-8.8,2.1-18.1,2.5-30.2c0.5-16.9,0-33.3-1.5-48.6c-1-9.9-2.2-19.9-3.7-29.6
				c-1.2-8.2-2.9-16.2-4.5-23.7c-1.3-6.2-2.9-12.7-4.9-19.9c-1.2-4.5-2.7-9-4.1-13.4c-0.4-1.2-0.8-2.5-1.2-3.7
				c-0.4-1.4-0.9-2.6-1.4-3.9c-0.2-0.6-0.4-1.1-0.7-1.7c-0.8-2.2-2.9-3.8-5.3-3.9C164.2,0,164.1,0,163.9,0L163.9,0z"/>
		</g>
		<path class="st2" d="M261.4,121.9H77.1c-9.2,0-16.7,7.5-16.7,16.7v139.8c0,9.2,7.5,16.7,16.7,16.7h184.3c9.2,0,16.7-7.5,16.7-16.7
			V138.6C278.1,129.4,270.6,121.9,261.4,121.9z"/>
		<rect x="73.8" y="135.3" class="st3" width="190.8" height="146.4"/>
		<g>
			<rect x="93.5" y="253.7" class="st4" width="16.6" height="16.6"/>
			<rect x="120.5" y="233.2" class="st4" width="16.6" height="37.1"/>
			<rect x="147.5" y="211.8" class="st4" width="16.6" height="58.6"/>
			<rect x="174.4" y="223.3" class="st4" width="16.6" height="47"/>
			<rect x="201.4" y="209.8" class="st4" width="16.6" height="60.6"/>
			<rect x="228.4" y="190.6" class="st4" width="16.6" height="79.8"/>
		</g>
		<line class="st5" x1="102" y1="229.4" x2="153.2" y2="180"/>
		<line class="st5" x1="183.5" y1="200.5" x2="153.2" y2="180"/>
		<line class="st5" x1="183.5" y1="200.5" x2="236.7" y2="171.1"/>
		<circle class="st6" cx="183.3" cy="200.3" r="7.7"/>
		<circle class="st6" cx="153.2" cy="180" r="7.7"/>
		<circle class="st6" cx="236.7" cy="171.1" r="7.7"/>
		<circle class="st6" cx="102" cy="229.4" r="7.7"/>
		<g>
			<rect x="93.5" y="253.7" class="st4" width="16.6" height="16.6"/>
			<rect x="120.5" y="233.2" class="st4" width="16.6" height="37.1"/>
			<rect x="147.5" y="211.8" class="st4" width="16.6" height="58.6"/>
			<rect x="174.4" y="223.3" class="st4" width="16.6" height="47"/>
			<rect x="201.4" y="209.8" class="st4" width="16.6" height="60.6"/>
			<rect x="228.4" y="190.6" class="st4" width="16.6" height="79.8"/>
		</g>
	</g>
	<circle class="st4" cx="168.5" cy="229.4" r="146.5"/>
	<g>
		<defs>
			<circle id="SVGID_1_" cx="168.5" cy="229.4" r="146.5"/>
		</defs>
		<clipPath id="SVGID_2_">
			<use xlink:href="#SVGID_1_"  style="overflow:visible;"/>
		</clipPath>
		<g class="st7">
			<g>
				<path class="st0" d="M255.3,328.5c-0.3,0-0.5,0-0.8-0.1c-0.7-0.2-1.4-0.4-2-0.5c-1.6-0.4-3.2-0.8-4.8-1.4
					c-1.2-0.4-2.4-0.9-3.6-1.3c-4.6-1.7-9.4-3.4-14.1-5.5c-5.4-2.4-10.9-5.3-16.9-8.8c-9.2-5.4-18-12.2-26.8-20.7
					c-0.3-0.3-0.6-0.6-0.9-0.9l-0.3-0.3c-2.3-1.8-4.3-4-6.3-6.7l-7-7.8c0,0.6,0,1.5,0.1,2.7c0,0.8,0,2-0.3,3.2l0,1.6
					c0,2.2-0.1,4.4-0.1,6c-0.1,3.2-0.1,5.7-3.1,5.7c0,0,0,0,0,0c-1.3,0-3-0.7-3.1-3.8c0-0.6,0-1.6-0.1-3c0-0.6,0-1.3,0-1.9
					c-0.4,0-0.9,0-1.3,0c-0.8,0-1.6,0-2.4,0c-1,0-1.9-0.4-2.7-1.1c-1.5-1.6-1.7-4.3-1.6-10c-11.2,13.4-22.7,24-34.8,32.4
					c-15.1,10.4-31.6,17.8-49,22.1c-0.2,0.1-0.5,0.1-0.7,0.1c-1,0-1.9-0.5-2.5-1.3c-0.7-1-0.7-2.4,0-3.4c0.3-0.4,0.6-0.9,0.9-1.3
					c0.7-1,1.4-2,2.1-3c8.6-11.7,18.1-22,28.2-30.7c4.9-4.2,10.1-8,15.1-11.7l1.9-1.4c2.8-2.1,5.8-4.2,8.6-6.2
					c-3.2,0.3-6.4,0.5-9.6,0.7c-3.4,0.2-6.8,0.3-10,0.3c-5.2,0-10.2-0.3-15-0.8c-4.1-0.5-8.5-1.2-13.4-2.3c-7.1-1.6-12.8-3.1-18-4.6
					c-4.9-1.5-10-3.2-15.6-5.4c-6.4-2.5-12.2-5-17.6-7.6c-4.3-2-8.6-4.3-12.7-6.6l-2.7-1.4c-1.7-0.9-3.3-1.9-4.9-2.9
					c-0.6-0.4-1.2-0.8-1.9-1.1c-0.8-0.5-1.4-1-1.9-1.7c-0.6-0.8-0.8-1.9-0.4-2.8s1.2-1.7,2.2-1.9c15.9-3.6,32.1-5.4,48.3-5.4
					c20.8,0,42.2,3,64,9c-0.8-0.5-1.5-0.9-2.3-1.4c-10.8-6.5-21.3-13-30.6-21.8c-6.7-6.3-12.1-13.3-18.5-21.9
					c-8.1-10.8-15.9-22.9-23.3-35.8c-7-12.3-13.3-25-18.7-37.6c-1.9-4.4-3.6-9-5.3-13.4c-0.7-2-1.5-3.9-2.2-5.9
					c-0.2-0.6-0.2-1.2-0.2-1.4l0-0.2c0-1,0.5-2,1.4-2.5c0.5-0.3,1-0.5,1.6-0.5c0.5,0,0.9,0.1,1.3,0.3c0.3,0.1,0.5,0.3,0.8,0.4
					c0.6,0.3,1.2,0.6,1.8,0.9c11.7,6.5,23.4,14.1,35.6,23.3c20.6,15.5,39.5,33.7,56.3,53.9c0.1,0.2,0.3,0.3,0.4,0.5
					c0.4,0.5,0.9,1,1.3,1.6c0.5,0.8,1,1.5,1.4,2.3l0.5,0.9c0.8,0.9,1.4,1.8,2,2.7c0,0,0.1,0,0.1,0.1c0.3,0.2,0.6,0.4,0.9,0.7
					c0.1,0.1,0.1,0.1,0.2,0.2c0.4,0.3,0.9,0.6,1.3,1.2c10,12.2,18,23,24.9,33.8c-1-4.4-2.1-8.8-2.9-13.3c-1.6-8.5-2.9-17.2-4.2-25.7
					l-0.3-1.9c-0.5-3.1-0.7-6.2-0.9-9.2c0-0.7-0.1-1.4-0.1-2.2c-0.6-2.7-0.7-5.5-0.6-7.8l0-0.5c0-0.3,0-0.6,0.1-0.9
					c0-0.5,0.1-1.7,0.1-1.7c-0.2-0.7-0.3-1.4-0.3-2.1c0-2.2-0.1-4.4-0.1-6.6c-0.1-4.3-0.1-8.7,0-13c0.2-8.8,0.6-17.5,1.1-25.6
					c0.4-6,1.1-12.1,1.9-18l0.1-1.2c0.7-6,1.5-11.8,2.4-17.3c0.8-5,1.7-9.8,2.7-14.3l0.7-3.1c1.4-6.6,2.9-13.5,4.8-20.2
					c1.6-5.8,3.4-11.5,5.2-17c0.8-2.3,1.5-4.7,2.2-7c0.2-0.5,0.4-0.9,0.5-1.2c0.1-0.1,0.2-0.3,0.2-0.5c0.5-1,1.6-1.7,2.7-1.7
					c0.1,0,0.1,0,0.2,0c1.2,0.1,2.2,0.8,2.7,1.9c0.2,0.6,0.4,1.2,0.7,1.7c0.5,1.3,0.9,2.4,1.3,3.7c0.4,1.2,0.8,2.5,1.2,3.7
					c1.4,4.3,2.8,8.8,4,13.2c1.9,7.1,3.5,13.5,4.8,19.7c1.6,7.4,3.2,15.4,4.4,23.5c1.5,9.7,2.7,19.6,3.7,29.5
					c1.5,15.4,2,31.2,1.5,48.2c-0.4,12-1.1,21.2-2.4,29.9c-1.6,10.1-3,18.3-4.4,25.8c-0.7,3.6-1.5,7.3-2.4,10.9
					c13.1-20.5,29.3-40.7,50.9-63.4c22-23.2,47.7-43,76.6-58.9c0.5-0.3,1-0.4,1.4-0.4c0.8,0,1.6,0.3,2.2,1l0.3,0.3
					c0.8,0.8,1,2,0.6,3l-0.5,1.6c-0.4,1.2-0.8,2.4-1.2,3.5c-3.7,10.1-8,20.2-13.2,30.8c-5.1,10.4-10.7,20.7-16.6,30.5
					c-8.8,14.5-18.3,28-28.4,40.1c-6.1,7.4-13.2,13.8-21,19c-4.8,3.2-9.8,6.3-14.6,9.2c-1.9,1.2-3.8,2.3-5.7,3.5
					c0.6-0.2,1.2-0.3,1.8-0.5c1.6-0.4,3.3-0.8,4.9-1.2l2.3-0.6c0.1,0,0.1,0,0.2-0.1c2.7-0.7,5.5-1.2,8.3-1.5
					c0.6-0.2,1.4-0.4,2.2-0.6c14-3,28.4-4.6,42.6-4.6c1.1,0,2.3,0,3.4,0c8.5,0.1,16.3,0.6,23.7,1.4c5.1,0.5,10.2,1.4,15.1,2.3
					c2,0.4,4,0.7,6.1,1.1c0.7,0.1,1.2,0.3,1.8,0.5c0.3,0.1,0.5,0.2,0.8,0.3c1.1,0.3,2,1.3,2.1,2.5c0.2,1.2-0.4,2.3-1.4,2.9
					c-0.7,0.4-1.3,0.8-1.9,1.2c-1.3,0.8-2.6,1.6-3.9,2.4c-1.4,0.8-2.8,1.5-4.2,2.3c-4.3,2.4-8.7,4.8-13.2,6.9
					c-6.7,3.1-13.7,5.9-20.4,8.6l-1,0.4c-3.8,1.5-7.9,2.9-12,4.2c-5,1.5-10.1,2.7-15,4c-10.1,2.5-20.7,3.8-31.7,3.8c0,0,0,0,0,0
					c-4,0-8.1-0.2-12.3-0.5c-0.5,0-0.9,0-1.4,0c-0.4,0-0.9,0-1.3,0c-0.5,0-1,0-1.6,0c-0.4,0-0.7-0.1-1.1-0.2c-0.5,0-1,0-1.6-0.1
					c2,1.4,4,2.8,5.9,4.2l1.4,1c5.4,4,11,8.2,16.4,12.6c9.6,7.9,18.7,17.4,27.1,28.4c1.4,1.8,2.7,3.6,4,5.4c0.6,0.8,1.2,1.6,1.8,2.5
					c0.7,0.9,0.8,2.2,0.2,3.2l-0.2,0.3C257.4,327.9,256.4,328.5,255.3,328.5z"/>
				<path class="st1" d="M163.9,6c0.7,1.9,1.4,3.6,2,5.3c1.8,5.6,3.6,11.2,5.2,16.8c1.8,6.5,3.4,13,4.8,19.5
					c1.6,7.7,3.2,15.5,4.4,23.3c1.5,9.7,2.7,19.5,3.6,29.3c1.6,15.9,2,31.9,1.5,47.9c-0.3,9.9-0.9,19.8-2.4,29.5
					c-1.3,8.6-2.7,17.2-4.4,25.7c-1.4,7.3-3.3,14.5-5,21.7c-0.6,2.6-1.3,5.3-1.8,7.9c16.7-30.1,37.8-55.7,60.4-79.5
					c22.7-24,48.2-43.1,75.9-58.4c0.1,0.1,0.2,0.2,0.3,0.3c-0.6,1.7-1.1,3.4-1.8,5c-3.8,10.5-8.3,20.6-13.1,30.5
					c-5.1,10.4-10.6,20.5-16.5,30.2c-8.5,14-17.9,27.3-28.1,39.7c-6,7.3-12.9,13.4-20.4,18.4c-7.8,5.2-15.8,9.8-23.7,14.8
					c-4.7,3-9.4,6.2-14,9.3c-0.2,0.2-0.4,0.4-0.5,0.9c0.7-0.3,1.5-0.6,2.2-0.9c6.5-2.7,13.1-4.6,19.8-6.4c2.4-0.6,4.9-1.2,7.3-1.8
					c0.1,0,0.1,0,0.2-0.1c2.7-0.7,5.5-1.2,8.3-1.5c0.4-0.2,1.1-0.4,2.1-0.6c13.9-3,27.9-4.5,41.9-4.5c1.1,0,2.2,0,3.4,0
					c7.8,0.1,15.6,0.5,23.4,1.4c7,0.7,14,2.2,21,3.3c0.7,0.1,1.3,0.4,2.3,0.7c-2,1.3-3.8,2.5-5.6,3.5c-5.7,3.1-11.4,6.4-17.3,9.1
					c-7,3.3-14.1,6.1-21.3,9c-3.9,1.6-7.8,2.9-11.8,4.1c-4.9,1.5-9.9,2.7-14.8,3.9c-10.2,2.5-20.6,3.7-30.9,3.7c-4,0-8-0.2-12-0.5
					c-0.5,0-1.1-0.1-1.6-0.1c-0.9,0-1.9,0-2.9,0c0-0.1,0-0.1,0.1-0.2c-2.3,0-4.7-0.3-7.1-0.8c-0.3,0-0.5-0.1-0.8-0.1
					c0,0,0-0.1,0-0.1c-1-0.1-1.9-0.2-2.8-0.3h-3.7c0,0.1,0,0.1,0,0.2c2.2,0.9,4.2,2.2,6.1,3.8c3.3,2.2,6.5,4.4,9.7,6.7
					c5.9,4.4,11.9,8.8,17.7,13.5c9.8,8.1,18.6,17.5,26.6,27.9c2,2.6,3.8,5.2,5.8,7.8c-0.1,0.1-0.1,0.2-0.2,0.3
					c-2.2-0.6-4.5-1.1-6.6-1.9c-5.8-2.1-11.7-4.1-17.5-6.7c-5.7-2.5-11.2-5.5-16.6-8.7c-9.4-5.5-18.1-12.4-26.3-20.3
					c-0.4-0.4-0.9-0.9-1.3-1.3c0,0,0,0,0,0c-2.3-1.8-4.2-4-5.9-6.4c-4.4-4.9-8.8-9.9-13.3-14.9c0,0.5-0.1,1.2-0.1,1.8
					c0.1,4.5,0.2,9.1,0.2,13.6c-0.4,0.5-0.9,0.9-1.5,0.9c-0.9,0-1.8,0-2.7,0c-0.8,0-1.6,0-2.4,0c-1.7,0-1.4-5.5-1.2-14.9
					c0-0.5,0-1-0.2-1.6c-11.7,15-24.6,28.1-39.5,38.3c-15,10.3-31,17.5-48.1,21.7c1-1.4,2-2.9,3-4.3c8.3-11.3,17.5-21.4,27.8-30.2
					c5.5-4.6,11.2-8.8,16.9-13.1c4.6-3.4,9.2-6.6,13.9-9.8c1.3-0.9,2.8-1.6,4.2-2.7c-0.3,0-0.6,0-0.9,0c-0.2,0-0.3,0-0.5,0
					c-6.5,0.5-13.1,1.2-19.6,1.6c-3.3,0.2-6.5,0.3-9.8,0.3c-4.9,0-9.8-0.2-14.7-0.8c-4.4-0.5-8.7-1.3-13-2.3
					c-6-1.4-11.9-2.8-17.8-4.6c-5.2-1.5-10.3-3.4-15.4-5.4c-5.9-2.3-11.7-4.8-17.5-7.5c-5.1-2.4-10.2-5.2-15.2-7.9
					c-2.2-1.2-4.4-2.6-6.6-3.9c-0.4-0.2-0.7-0.5-1.1-0.9c16-3.6,31.9-5.3,47.6-5.3c28.3,0,56.3,5.5,84.1,15.5
					c-1-0.8-1.8-1.6-2.8-2.2c-6-3.8-12-7.6-18.1-11.3c-10.5-6.3-20.9-12.8-30.1-21.4c-6.8-6.3-12.5-13.9-18.1-21.5
					c-8.4-11.2-16-23.1-23.1-35.5c-6.8-12-13-24.4-18.5-37.2c-2.7-6.3-5-12.8-7.5-19.2c0-0.1,0-0.2,0-0.5c0.9,0.4,1.7,0.8,2.5,1.3
					c12.2,6.7,23.9,14.5,35.3,23.1c20.3,15.3,39,33.1,55.8,53.5c0.5,0.6,1.1,1.2,1.5,1.8c0.7,1.1,1.4,2.2,2,3.3
					c0.8,0.9,1.5,1.8,2.1,2.8c0,0.1,0.1,0.1,0.1,0.2c0.5,0.3,1,0.6,1.4,1c0.4,0.3,0.8,0.5,1.1,0.9c9.3,11.3,18.2,23.1,26.1,35.7
					c2.7,4.3,5.1,8.9,7.7,13.4c0.2,0.3,0.4,0.7,0.8,0.9c-0.6-2.7-1.3-5.4-1.9-8.1c-1.9-8-4-15.9-5.5-23.9
					c-1.7-9.1-3.1-18.3-4.4-27.4c-0.6-3.7-0.7-7.6-1-11.3c-0.6-2.3-0.6-4.9-0.6-7.4c0-0.2,0-0.4,0-0.7c0,0,0,0,0.1,0
					c0-0.9,0.1-1.8,0.1-2.7c-0.2-0.5-0.3-1.1-0.3-1.7c0-6.5-0.3-13-0.1-19.5c0.2-8.5,0.6-17,1.1-25.5c0.4-6.3,1.2-12.7,2-19
					c0.7-5.7,1.5-11.5,2.4-17.1c0.8-4.8,1.6-9.5,2.7-14.2c1.7-7.8,3.3-15.6,5.4-23.2c2.2-8.1,4.9-15.9,7.4-23.9
					C163.4,6.9,163.6,6.6,163.9,6 M168.7,273.2c0,0,0.1,1.1,0.1,3.8c0,0.9-0.1,1.9-0.3,2.7C168.5,276.2,168.6,273.2,168.7,273.2
					 M168.5,279.7c-0.1,4.9-0.2,10.7-0.3,10.7c0,0-0.1-1.1-0.1-3.8c0-1.9-0.1-3.8-0.1-5.7C168.2,280.5,168.3,280.1,168.5,279.7
					 M163.9,0c-2.3,0-4.4,1.3-5.4,3.3c-0.1,0.2-0.1,0.3-0.2,0.4c-0.2,0.4-0.5,1-0.8,1.7c-0.7,2.3-1.5,4.6-2.2,7
					c-1.8,5.6-3.7,11.3-5.2,17.1c-1.8,6.7-3.4,13.7-4.8,20.3l-0.7,3.1c-1,4.6-1.9,9.5-2.7,14.5c-0.9,5.5-1.7,11.4-2.4,17.4l-0.1,1.2
					c-0.7,5.9-1.5,12-1.9,18.1c-0.6,8.2-0.9,16.9-1.2,25.8c-0.1,4.4,0,8.9,0,13.1c0,2.2,0.1,4.4,0.1,6.6c0,0.8,0.1,1.6,0.3,2.4
					c0,0.3,0,0.6,0,1c-0.1,0.5-0.1,0.9-0.1,1.4l0,0.2l0,0.2c-0.1,2.4,0,5.3,0.6,8.2c0,0.6,0.1,1.3,0.1,1.9c0.2,3.1,0.4,6.2,0.9,9.4
					l0.3,1.8c1.2,7.9,2.4,16,3.9,24.1c-4.8-6.7-10.2-13.7-16.3-21.2c-0.7-0.9-1.4-1.4-1.9-1.7l-0.1-0.1c-0.3-0.2-0.5-0.4-0.7-0.5
					c-0.5-0.8-1.1-1.5-1.8-2.3c-0.1-0.2-0.3-0.4-0.4-0.6c-0.5-0.8-1-1.6-1.5-2.4c-0.6-0.9-1.1-1.5-1.6-2c-0.1-0.1-0.2-0.3-0.4-0.4
					c-16.9-20.5-36.1-38.8-56.8-54.4c-12.3-9.3-24.1-17-36-23.5c-0.7-0.4-1.4-0.7-2-1c-0.3-0.1-0.5-0.2-0.8-0.4
					c-0.8-0.4-1.7-0.6-2.6-0.6c-1.1,0-2.2,0.3-3.2,0.9c-1.8,1.1-2.8,3-2.8,5.1l0,0.1c0,0.4-0.1,1.4,0.4,2.6c0.8,1.9,1.5,3.9,2.2,5.9
					c1.7,4.5,3.4,9.1,5.3,13.5c5.4,12.7,11.7,25.4,18.8,37.9c7.4,13,15.3,25.2,23.5,36.2c5.1,6.8,11.4,15.3,18.8,22.3
					c5.6,5.3,11.6,9.7,17.8,13.8c-15.8-3.2-31.5-4.8-46.8-4.8c-16.4,0-32.9,1.8-49,5.5c-2,0.4-3.6,1.9-4.3,3.8
					c-0.7,1.9-0.4,4,0.8,5.7c0.8,1,1.7,1.8,2.8,2.5c0.6,0.4,1.2,0.7,1.8,1.1c1.6,1,3.3,2,5,3c0.9,0.5,1.8,1,2.6,1.4
					c4.2,2.3,8.5,4.6,12.8,6.7c5.5,2.6,11.4,5.1,17.8,7.6c5.7,2.2,10.9,4,15.9,5.5c5.3,1.6,11.1,3,18.2,4.7c5,1.1,9.5,1.9,13.7,2.4
					c4.9,0.6,10.1,0.8,15.4,0.8c3,0,6-0.1,9.1-0.3l-1.9,1.4c-5,3.7-10.3,7.6-15.2,11.9c-10.3,8.8-20,19.3-28.7,31.2
					c-0.8,1-1.5,2.1-2.2,3.1c-0.3,0.4-0.6,0.9-0.9,1.3c-1.4,2.1-1.4,4.8,0,6.8c1.1,1.6,3,2.6,4.9,2.6c0.5,0,1-0.1,1.4-0.2
					c17.8-4.4,34.7-12,50-22.6c10.6-7.3,20.7-16.3,30.5-27.2c0.3,1.9,1,3.2,2.1,4.4c1.3,1.3,3,2,4.8,2.1c0.3,0,0.5,0,0.8,0
					c0,0.9,0,1.5,0,2c0,0.4,0,0.7,0,0.9c0.3,3.8,3.2,5.8,6,5.8c2.8,0,5.7-2,6-5.7c0-0.2,0-0.4,0-0.8c0-0.5,0-1.2,0.1-2.1
					c0-1.6,0.1-3.8,0.1-6l2,2.2c2.1,2.9,4.2,5.2,6.6,7.1l0.2,0.2c0.3,0.3,0.6,0.6,1,1c9,8.7,18,15.6,27.4,21.1
					c6.1,3.6,11.7,6.5,17.2,9c4.8,2.1,9.6,3.9,14.3,5.6c1.2,0.4,2.4,0.9,3.6,1.3c1.8,0.6,3.4,1.1,5.1,1.5c0.7,0.2,1.3,0.3,2,0.5
					c0.5,0.2,1.1,0.2,1.6,0.2c2.2,0,4.2-1.2,5.3-3.2l0.2-0.3c1.1-2,0.9-4.6-0.4-6.4c-0.6-0.8-1.2-1.6-1.8-2.4
					c-1.3-1.8-2.7-3.6-4-5.4c-8.5-11.2-17.8-20.9-27.6-28.9c-5.1-4.2-10.4-8.2-15.6-12c3.1,0.2,6.2,0.3,9.1,0.3
					c11.2,0,22.1-1.3,32.4-3.9l0.1,0c4.9-1.2,10-2.5,15-4c4.2-1.3,8.4-2.7,12.3-4.3l1-0.4c6.8-2.7,13.7-5.5,20.5-8.7
					c4.6-2.1,9.1-4.6,13.4-7c1.4-0.8,2.8-1.5,4.2-2.3c1.4-0.8,2.7-1.6,4.1-2.5c0.6-0.4,1.2-0.8,1.8-1.2c2-1.2,3.1-3.6,2.8-5.9
					c-0.3-2.3-2-4.3-4.2-5c-0.3-0.1-0.5-0.2-0.8-0.2c-0.7-0.2-1.4-0.5-2.3-0.6c-2-0.3-4-0.7-6-1c-5-0.9-10.1-1.8-15.3-2.3
					c-7.5-0.8-15.3-1.2-23.9-1.4c-1.2,0-2.3,0-3.5,0c-14.4,0-29,1.6-43.2,4.7c-0.8,0.2-1.5,0.3-2.3,0.6c-0.1,0-0.1,0-0.2,0
					c1.8-1.1,3.6-2.3,5.3-3.5c8.1-5.4,15.4-12,21.7-19.6c10.1-12.2,19.8-25.8,28.6-40.4c6-9.9,11.7-20.2,16.8-30.7
					c5.2-10.7,9.6-20.9,13.3-31.1c0.4-1.2,0.9-2.4,1.3-3.6c0.2-0.5,0.4-1,0.5-1.6c0.7-2.1,0.2-4.4-1.3-6.1l-0.3-0.3
					c-1.2-1.3-2.8-1.9-4.4-1.9c-1,0-2,0.2-2.9,0.7c-29.1,16.1-55.2,36.1-77.3,59.5c-17.2,18.1-31,34.6-42.5,51
					c1.2-6.4,2.4-13.4,3.6-21.7c1.3-8.8,2.1-18.1,2.5-30.2c0.5-16.9,0-33.3-1.5-48.6c-1-9.9-2.2-19.9-3.7-29.6
					c-1.2-8.2-2.9-16.2-4.5-23.7c-1.3-6.2-2.9-12.7-4.9-19.9c-1.2-4.5-2.7-9-4.1-13.4c-0.4-1.2-0.8-2.5-1.2-3.7
					c-0.4-1.4-0.9-2.6-1.4-3.9c-0.2-0.6-0.4-1.1-0.7-1.7c-0.8-2.2-2.9-3.8-5.3-3.9C164.2,0,164.1,0,163.9,0L163.9,0z"/>
			</g>
			<path class="st2" d="M261.4,121.9H77.1c-9.2,0-16.7,7.5-16.7,16.7v139.8c0,9.2,7.5,16.7,16.7,16.7h184.3
				c9.2,0,16.7-7.5,16.7-16.7V138.6C278.1,129.4,270.6,121.9,261.4,121.9z"/>
			<rect x="73.8" y="135.3" class="st3" width="190.8" height="146.4"/>
			<g>
				<rect x="93.5" y="253.7" class="st4" width="16.6" height="16.6"/>
				<rect x="120.5" y="233.2" class="st4" width="16.6" height="37.1"/>
				<rect x="147.5" y="211.8" class="st4" width="16.6" height="58.6"/>
				<rect x="174.4" y="223.3" class="st4" width="16.6" height="47"/>
				<rect x="201.4" y="209.8" class="st4" width="16.6" height="60.6"/>
				<rect x="228.4" y="190.6" class="st4" width="16.6" height="79.8"/>
			</g>
			<line class="st5" x1="102" y1="229.4" x2="153.2" y2="180"/>
			<line class="st5" x1="183.5" y1="200.5" x2="153.2" y2="180"/>
			<line class="st5" x1="183.5" y1="200.5" x2="236.7" y2="171.1"/>
			<circle class="st6" cx="183.3" cy="200.3" r="7.7"/>
			<circle class="st6" cx="153.2" cy="180" r="7.7"/>
			<circle class="st6" cx="236.7" cy="171.1" r="7.7"/>
			<circle class="st6" cx="102" cy="229.4" r="7.7"/>
			<g>
				<rect x="93.5" y="253.7" class="st4" width="16.6" height="16.6"/>
				<rect x="120.5" y="233.2" class="st4" width="16.6" height="37.1"/>
				<rect x="147.5" y="211.8" class="st4" width="16.6" height="58.6"/>
				<rect x="174.4" y="223.3" class="st4" width="16.6" height="47"/>
				<rect x="201.4" y="209.8" class="st4" width="16.6" height="60.6"/>
				<rect x="228.4" y="190.6" class="st4" width="16.6" height="79.8"/>
			</g>
			<g>
				<path class="st3" d="M207.7,284.1c-5.2,0-9.5,4.3-9.5,9.5v-5.3c0-5.2-4.3-9.5-9.5-9.5s-9.5,4.3-9.5,9.5v-5.3
					c0-5.2-4.3-9.5-9.5-9.5c-5.2,0-9.5,4.3-9.5,9.5v-40.2c0-5.2-4.3-9.5-9.5-9.5c-5.2,0-9.5,4.3-9.5,9.5v65.7l-14.3-14.3
					c-3.7-3.7-9.7-3.7-13.4,0v0c-3.7,3.7-3.7,9.7,0,13.4l34.4,34.4v26h54.2v-20.5c7.2-2.7,14.9-6.9,14.9-20.4v-2.7v-28.4v-2.3
					C217.2,288.3,212.9,284.1,207.7,284.1z"/>
				<path class="st5" d="M160.4,297.6v-14.7c0-5.2,4.3-9.5,9.5-9.5h0c5.2,0,9.5,4.3,9.5,9.5V302"/>
				<path class="st5" d="M179.3,293.1v-4.9c0-5.2,4.3-9.5,9.5-9.5h0c5.2,0,9.5,4.3,9.5,9.5v17.4"/>
			</g>
			<rect x="139.3" y="353.7" class="st3" width="68.2" height="26.9"/>
			<rect x="45.1" y="340.4" class="st3" width="48.2" height="24.3"/>
			<path class="st3" d="M38.3,263.4c0.3-0.4,0.7-0.8,1-1.1c0.2-0.2,0.5-0.5,0.7-0.6L60.7,241c3.6-3.6,9.4-3.6,13,0v0
				c3.6,3.6,3.6,9.4,0,13l-14.4,14.4c0.1,0.1,0.2,0.2,0.2,0.2s15.5,12,17.2,26.6c12.9,0,25.3,0,25.3,0L85,340.4H45.1v-29.9
				l-9.5-33.9C35.6,276.6,32.7,270,38.3,263.4z"/>
		</g>
	</g>
</g>
</svg>
